<?xml version="1.0" encoding="utf-8"?>
<!-- Generator: Adobe Illustrator 22.1.0, SVG Export Plug-In . SVG Version: 6.00 Build 0)  -->
<svg version="1.1" id="图层_1" xmlns="http://www.w3.org/2000/svg" xmlns:xlink="http://www.w3.org/1999/xlink" x="0px" y="0px"
	 viewBox="0 0 24 24" style="enable-background:new 0 0 24 24;" xml:space="preserve">
<style type="text/css">
	.st0{fill:#B27ACF;}
</style>
<g id="icon_24_twitter">
	<path class="st0" d="M12,1C5.9,1,1,5.9,1,12s4.9,11,11,11s11-4.9,11-11S18.1,1,12,1z M17.6,9.9c-0.1,4.7-3.1,7.9-7.5,8.1
		c-1.8,0.1-3.2-0.5-4.4-1.3c1.4,0.2,3.1-0.3,4-1.1c-1.3-0.1-2.1-0.8-2.5-1.9c0.4,0.1,0.8,0,1.2,0c-1.2-0.4-2.1-1.2-2.1-2.7
		c0.3,0.2,0.7,0.3,1.2,0.3c-0.9-0.5-1.6-2.4-0.8-3.6c1.3,1.5,3,2.7,5.6,2.8c-0.7-2.8,3.1-4.4,4.7-2.5c0.7-0.1,1.2-0.4,1.7-0.7
		C18.4,8,18,8.5,17.4,8.9c0.6-0.1,1-0.2,1.5-0.4C18.7,9,18.1,9.5,17.6,9.9z"/>
</g>
</svg>
