<?xml version="1.0" encoding="utf-8"?>
<!-- Generator: Adobe Illustrator 22.1.0, SVG Export Plug-In . SVG Version: 6.00 Build 0)  -->
<svg version="1.1" id="图层_1" xmlns="http://www.w3.org/2000/svg" xmlns:xlink="http://www.w3.org/1999/xlink" x="0px" y="0px"
	 viewBox="0 0 24 24" style="enable-background:new 0 0 24 24;" xml:space="preserve">
<style type="text/css">
	.st0{fill:#B27ACF;}
</style>
<g id="icon_24_telegram">
	<path class="st0" d="M14.7,9.7l-4.2,3.9c-0.1,0.1-0.2,0.3-0.3,0.5l-0.1,1.1c0,0.1-0.2,0.2-0.3,0l-0.6-1.9c-0.1-0.2,0-0.5,0.2-0.6
		l5.1-3.1C14.7,9.5,14.8,9.7,14.7,9.7L14.7,9.7z M12,23C5.9,23,1,18.1,1,12S5.9,1,12,1s11,4.9,11,11S18.1,23,12,23z M16.8,7.6
		L6,11.7c-0.1,0-0.2,0.2-0.2,0.3s0.1,0.2,0.2,0.3l2.6,1l1,3.2c0,0.1,0.1,0.2,0.2,0.2s0.2,0,0.3-0.1l1.5-1.2c0.2-0.1,0.4-0.1,0.5,0
		l2.6,1.9c0.1,0.1,0.2,0.1,0.3,0c0.1,0,0.2-0.1,0.2-0.2l1.9-9.2c0-0.1,0-0.2-0.1-0.3S16.9,7.5,16.8,7.6L16.8,7.6z"/>
</g>
</svg>
