<?xml version="1.0" encoding="utf-8"?>
<!-- Generator: Adobe Illustrator 22.1.0, SVG Export Plug-In . SVG Version: 6.00 Build 0)  -->
<svg version="1.1" id="图层_1" xmlns="http://www.w3.org/2000/svg" xmlns:xlink="http://www.w3.org/1999/xlink" x="0px" y="0px"
	 viewBox="0 0 16 16" style="enable-background:new 0 0 16 16;" xml:space="preserve">
<style type="text/css">
	.st0{fill:#FFFFFF;}
</style>
<g id="icon_home_tips">
	<g id="Combined-Shape" transform="translate(1.000000, 1.000000)">
		<path class="st0" d="M7,14c-3.9,0-7-3.1-7-7s3.1-7,7-7s7,3.1,7,7S10.9,14,7,14z M7,2.6C6.5,2.6,6.1,3,6.1,3.5V7
			c0,0.5,0.4,0.9,0.9,0.9S7.9,7.5,7.9,7V3.5C7.9,3,7.5,2.6,7,2.6z M7,10.5c0.5,0,0.9-0.4,0.9-0.9c0-0.5-0.4-0.9-0.9-0.9
			S6.1,9.1,6.1,9.6C6.1,10.1,6.5,10.5,7,10.5z"/>
	</g>
</g>
</svg>
