<?xml version="1.0" encoding="UTF-8"?>
<svg width="20px" height="12px" viewBox="0 0 20 12" version="1.1" xmlns="http://www.w3.org/2000/svg" xmlns:xlink="http://www.w3.org/1999/xlink">
    <!-- Generator: Sketch 50.2 (55047) - http://www.bohemiancoding.com/sketch -->
    <title>icon_lower</title>
    <desc>Created with Sketch.</desc>
    <defs></defs>
    <g id="Symbols" stroke="none" stroke-width="1" fill="none" fill-rule="evenodd">
        <g id="icon_lower" fill="#FFCB01">
            <g id="89">
                <path d="M1,2.09059435 C1,1.79976773 1.10905834,1.54529826 1.3271783,1.3271783 C1.54529826,1.10905834 1.79976773,1 2.09059435,1 C2.40219429,1 2.66185701,1.10905834 2.86959031,1.3271783 C3.0773236,1.54529826 3.18118869,1.79976773 3.18118869,2.09059435 C3.18118869,2.40219429 3.0773236,2.66705027 2.86959031,2.88517023 C2.66185701,3.10329018 2.40219429,3.21234853 2.09059435,3.21234853 C1.79976773,3.21234853 1.54529826,3.10329018 1.3271783,2.88517023 C1.10905834,2.66705027 1,2.40219429 1,2.09059435 Z M3.54472014,2.17368725 C3.54472014,1.86208731 3.65377848,1.59723133 3.87189844,1.37911137 C4.0900184,1.16099141 4.34448787,1.05193306 4.63531448,1.05193306 C4.94691443,1.05193306 5.20657715,1.16099141 5.41431044,1.37911137 C5.62204374,1.59723133 5.72590883,1.86208731 5.72590883,2.17368725 C5.72590883,2.46451386 5.62204374,2.71898333 5.41431044,2.93710329 C5.20657715,3.15522325 4.94691443,3.26428159 4.63531448,3.26428159 C4.34448787,3.26428159 4.0900184,3.15522325 3.87189844,2.93710329 C3.65377848,2.71898333 3.54472014,2.46451386 3.54472014,2.17368725 Z M6.19330641,2.17368725 C6.19330641,1.86208731 6.30236475,1.59723133 6.52048471,1.37911137 C6.73860467,1.16099141 6.99307414,1.05193306 7.28390075,1.05193306 C7.59550069,1.05193306 7.85516342,1.16099141 8.06289671,1.37911137 C8.27063001,1.59723133 8.3744951,1.86208731 8.3744951,2.17368725 C8.3744951,2.46451386 8.27063001,2.71898333 8.06289671,2.93710329 C7.85516342,3.15522325 7.59550069,3.26428159 7.28390075,3.26428159 C6.99307414,3.26428159 6.73860467,3.15522325 6.52048471,2.93710329 C6.30236475,2.71898333 6.19330641,2.46451386 6.19330641,2.17368725 Z M8.84189267,2.17368725 C8.84189267,1.86208731 8.95095102,1.59723133 9.16907098,1.37911137 C9.38719093,1.16099141 9.6416604,1.05193306 9.93248702,1.05193306 C10.244087,1.05193306 10.5037497,1.16099141 10.711483,1.37911137 C10.9192163,1.59723133 11.0230814,1.86208731 11.0230814,2.17368725 C11.0230814,2.46451386 10.9192163,2.71898333 10.711483,2.93710329 C10.5037497,3.15522325 10.244087,3.26428159 9.93248702,3.26428159 C9.6416604,3.26428159 9.38719093,3.15522325 9.16907098,2.93710329 C8.95095102,2.71898333 8.84189267,2.46451386 8.84189267,2.17368725 Z M11.4904789,2.17368725 C11.4904789,1.86208731 11.5995373,1.59723133 11.8176572,1.37911137 C12.0357772,1.16099141 12.2902467,1.05193306 12.5810733,1.05193306 C12.8926732,1.05193306 13.1523359,1.16099141 13.3600692,1.37911137 C13.5678025,1.59723133 13.6716676,1.86208731 13.6716676,2.17368725 C13.6716676,2.46451386 13.5678025,2.71898333 13.3600692,2.93710329 C13.1523359,3.15522325 12.8926732,3.26428159 12.5810733,3.26428159 C12.2902467,3.26428159 12.0357772,3.15522325 11.8176572,2.93710329 C11.5995373,2.71898333 11.4904789,2.46451386 11.4904789,2.17368725 Z M14.1390652,2.17368725 C14.1390652,1.86208731 14.2481235,1.59723133 14.4662435,1.37911137 C14.6843635,1.16099141 14.9388329,1.05193306 15.2296595,1.05193306 C15.5412595,1.05193306 15.8009222,1.16099141 16.0086555,1.37911137 C16.2163888,1.59723133 16.3202539,1.86208731 16.3202539,2.17368725 C16.3202539,2.46451386 16.2163888,2.71898333 16.0086555,2.93710329 C15.8009222,3.15522325 15.5412595,3.26428159 15.2296595,3.26428159 C14.9388329,3.26428159 14.6843635,3.15522325 14.4662435,2.93710329 C14.2481235,2.71898333 14.1390652,2.46451386 14.1390652,2.17368725 Z M16.7876515,2.17368725 C16.7876515,1.86208731 16.8967098,1.59723133 17.1148298,1.37911137 C17.3329497,1.16099141 17.5874192,1.05193306 17.8782458,1.05193306 C18.1898458,1.05193306 18.4547017,1.16099141 18.6728217,1.37911137 C18.8909417,1.59723133 19,1.86208731 19,2.17368725 C19,2.46451386 18.8909417,2.71898333 18.6728217,2.93710329 C18.4547017,3.15522325 18.1898458,3.26428159 17.8782458,3.26428159 C17.5874192,3.26428159 17.3329497,3.15522325 17.1148298,2.93710329 C16.8967098,2.71898333 16.7876515,2.46451386 16.7876515,2.17368725 Z M3.54472014,4.82227351 C3.54472014,4.51067357 3.65377848,4.24581759 3.87189844,4.02769763 C4.0900184,3.80957767 4.34448787,3.70051933 4.63531448,3.70051933 C4.94691443,3.70051933 5.20657715,3.80957767 5.41431044,4.02769763 C5.62204374,4.24581759 5.72590883,4.51067357 5.72590883,4.82227351 C5.72590883,5.11310013 5.62204374,5.3675696 5.41431044,5.58568956 C5.20657715,5.80380952 4.94691443,5.91286786 4.63531448,5.91286786 C4.34448787,5.91286786 4.0900184,5.80380952 3.87189844,5.58568956 C3.65377848,5.3675696 3.54472014,5.11310013 3.54472014,4.82227351 Z M6.19330641,4.82227351 C6.19330641,4.51067357 6.30236475,4.24581759 6.52048471,4.02769763 C6.73860467,3.80957767 6.99307414,3.70051933 7.28390075,3.70051933 C7.59550069,3.70051933 7.85516342,3.80957767 8.06289671,4.02769763 C8.27063001,4.24581759 8.3744951,4.51067357 8.3744951,4.82227351 C8.3744951,5.11310013 8.27063001,5.3675696 8.06289671,5.58568956 C7.85516342,5.80380952 7.59550069,5.91286786 7.28390075,5.91286786 C6.99307414,5.91286786 6.73860467,5.80380952 6.52048471,5.58568956 C6.30236475,5.3675696 6.19330641,5.11310013 6.19330641,4.82227351 Z M8.78995961,4.82227351 C8.78995961,4.51067357 8.89901795,4.24581759 9.11713791,4.02769763 C9.33525787,3.80957767 9.58972734,3.70051933 9.88055395,3.70051933 C10.1921539,3.70051933 10.4518166,3.80957767 10.6595499,4.02769763 C10.8672832,4.24581759 10.9711483,4.51067357 10.9711483,4.82227351 C10.9711483,5.11310013 10.8672832,5.3675696 10.6595499,5.58568956 C10.4518166,5.80380952 10.1921539,5.91286786 9.88055395,5.91286786 C9.58972734,5.91286786 9.33525787,5.80380952 9.11713791,5.58568956 C8.89901795,5.3675696 8.78995961,5.11310013 8.78995961,4.82227351 Z M11.3866128,4.82227351 C11.3866128,4.51067357 11.4956712,4.24581759 11.7137911,4.02769763 C11.9319111,3.80957767 12.1863805,3.70051933 12.4772072,3.70051933 C12.7888071,3.70051933 13.0484698,3.80957767 13.2562031,4.02769763 C13.4639364,4.24581759 13.5678015,4.51067357 13.5678015,4.82227351 C13.5678015,5.11310013 13.4639364,5.3675696 13.2562031,5.58568956 C13.0484698,5.80380952 12.7888071,5.91286786 12.4772072,5.91286786 C12.1863805,5.91286786 11.9319111,5.80380952 11.7137911,5.58568956 C11.4956712,5.3675696 11.3866128,5.11310013 11.3866128,4.82227351 Z M6.19330641,7.47085978 C6.19330641,7.15925984 6.30236475,6.89440386 6.52048471,6.6762839 C6.73860467,6.45816394 6.99307414,6.3491056 7.28390075,6.3491056 C7.59550069,6.3491056 7.85516342,6.45816394 8.06289671,6.6762839 C8.27063001,6.89440386 8.3744951,7.15925984 8.3744951,7.47085978 C8.3744951,7.76168639 8.27063001,8.01615586 8.06289671,8.23427582 C7.85516342,8.45239578 7.59550069,8.56145413 7.28390075,8.56145413 C6.99307414,8.56145413 6.73860467,8.45239578 6.52048471,8.23427582 C6.30236475,8.01615586 6.19330641,7.76168639 6.19330641,7.47085978 Z M8.84189267,7.47085978 C8.84189267,7.15925984 8.95095102,6.89440386 9.16907098,6.6762839 C9.38719093,6.45816394 9.6416604,6.3491056 9.93248702,6.3491056 C10.244087,6.3491056 10.5037497,6.45816394 10.711483,6.6762839 C10.9192163,6.89440386 11.0230814,7.15925984 11.0230814,7.47085978 C11.0230814,7.76168639 10.9192163,8.01615586 10.711483,8.23427582 C10.5037497,8.45239578 10.244087,8.56145413 9.93248702,8.56145413 C9.6416604,8.56145413 9.38719093,8.45239578 9.16907098,8.23427582 C8.95095102,8.01615586 8.84189267,7.76168639 8.84189267,7.47085978 Z M11.4904789,7.47085978 C11.4904789,7.15925984 11.5995373,6.89440386 11.8176572,6.6762839 C12.0357772,6.45816394 12.2902467,6.3491056 12.5810733,6.3491056 C12.8926732,6.3491056 13.1523359,6.45816394 13.3600692,6.6762839 C13.5678025,6.89440386 13.6716676,7.15925984 13.6716676,7.47085978 C13.6716676,7.76168639 13.5678025,8.01615586 13.3600692,8.23427582 C13.1523359,8.45239578 12.8926732,8.56145413 12.5810733,8.56145413 C12.2902467,8.56145413 12.0357772,8.45239578 11.8176572,8.23427582 C11.5995373,8.01615586 11.4904789,7.76168639 11.4904789,7.47085978 Z M14.1390652,4.82227351 C14.1390652,4.51067357 14.2481235,4.24581759 14.4662435,4.02769763 C14.6843635,3.80957767 14.9388329,3.70051933 15.2296595,3.70051933 C15.5412595,3.70051933 15.8009222,3.80957767 16.0086555,4.02769763 C16.2163888,4.24581759 16.3202539,4.51067357 16.3202539,4.82227351 C16.3202539,5.11310013 16.2163888,5.3675696 16.0086555,5.58568956 C15.8009222,5.80380952 15.5412595,5.91286786 15.2296595,5.91286786 C14.9388329,5.91286786 14.6843635,5.80380952 14.4662435,5.58568956 C14.2481235,5.3675696 14.1390652,5.11310013 14.1390652,4.82227351 Z M8.84189267,10.119446 C8.84189267,9.80784611 8.95095102,9.54818338 9.16907098,9.34045009 C9.38719093,9.13271679 9.6416604,9.0288517 9.93248702,9.0288517 C10.244087,9.0288517 10.5037497,9.13271679 10.711483,9.34045009 C10.9192163,9.54818338 11.0230814,9.80784611 11.0230814,10.119446 C11.0230814,10.4102727 10.9192163,10.6647421 10.711483,10.8828621 C10.5037497,11.100982 10.244087,11.2100404 9.93248702,11.2100404 C9.6416604,11.2100404 9.38719093,11.100982 9.16907098,10.8828621 C8.95095102,10.6647421 8.84189267,10.4102727 8.84189267,10.119446 Z"></path>
            </g>
        </g>
    </g>
</svg>