<?xml version="1.0" encoding="utf-8"?>
<!-- Generator: Adobe Illustrator 22.1.0, SVG Export Plug-In . SVG Version: 6.00 Build 0)  -->
<svg version="1.1" id="图层_1" xmlns="http://www.w3.org/2000/svg" xmlns:xlink="http://www.w3.org/1999/xlink" x="0px" y="0px"
	 viewBox="0 0 24 24" style="enable-background:new 0 0 24 24;" xml:space="preserve">
<style type="text/css">
	.st0{fill:#FFFFFF;}
	.st1{fill:#742BE1;}
	.st2{fill:#560FC1;}
</style>
<g id="icon_home_coin">
	<g transform="translate(1.000000, 1.000000)">
		<circle id="Mask" class="st0" cx="11" cy="11" r="11"/>
		<path id="Combined-Shape" class="st1" d="M9.1,21.8l2.4-11L3,18.5c-1.1-1.2-1.9-2.6-2.4-4.2l11-3.5l8,7.2c0.9-1.1,1.7-2.5,2.1-4
			l-10.1-3.3L3.2,3.3c-1.1,1.1-2,2.5-2.5,4l10.9,3.5l7.8-7c1,1.1,1.7,2.4,2.2,3.8l-10,3.2L9.2,0.1C9.8,0,10.4,0,11,0
			c0.9,0,1.9,0.1,2.7,0.3l-2.2,10.5l2.3,10.8C12.9,21.9,12,22,11,22C10.4,22,9.7,21.9,9.1,21.8z"/>
		<circle id="Oval-21-Copy" class="st2" cx="11" cy="11" r="8.2"/>
		<circle id="Oval-21-Copy_1_" class="st0" cx="11" cy="11" r="4.6"/>
		<path id="Oval-21-Copy_2_" class="st0" d="M11,17.9c-0.3,0-0.5-0.2-0.5-0.5s0.2-0.5,0.5-0.5c1.3,0,2.5-0.4,3.5-1.1
			c0.2-0.2,0.5-0.1,0.7,0.1c0.2,0.2,0.1,0.5-0.1,0.7C13.9,17.4,12.5,17.9,11,17.9z M17.6,13.1c-0.1,0.3-0.4,0.4-0.6,0.3
			s-0.4-0.4-0.3-0.6c0.2-0.6,0.3-1.2,0.3-1.8c0-0.6-0.1-1.2-0.3-1.8c-0.1-0.3,0.1-0.5,0.3-0.6c0.3-0.1,0.5,0.1,0.6,0.3
			c0.2,0.7,0.3,1.4,0.3,2.1C17.9,11.7,17.8,12.4,17.6,13.1z M15.1,5.4c0.2,0.2,0.3,0.5,0.1,0.7c-0.2,0.2-0.5,0.3-0.7,0.1
			c-1-0.7-2.2-1.1-3.5-1.1c-0.3,0-0.5-0.2-0.5-0.5c0-0.3,0.2-0.5,0.5-0.5C12.5,4.1,13.9,4.6,15.1,5.4z M6.9,5.4
			c0.2-0.2,0.5-0.1,0.7,0.1c0.2,0.2,0.1,0.5-0.1,0.7C6.5,7,5.7,8,5.4,9.2C5.3,9.5,5,9.6,4.7,9.5C4.5,9.4,4.3,9.2,4.4,8.9
			C4.9,7.5,5.7,6.3,6.9,5.4z M4.4,13.1c-0.1-0.3,0.1-0.5,0.3-0.6s0.5,0.1,0.6,0.3c0.4,1.2,1.1,2.3,2.2,3c0.2,0.2,0.3,0.5,0.1,0.7
			c-0.2,0.2-0.5,0.3-0.7,0.1C5.7,15.7,4.8,14.5,4.4,13.1z"/>
	</g>
</g>
</svg>
