<?xml version="1.0" encoding="UTF-8"?>
<svg width="30px" height="31px" viewBox="0 0 30 31" version="1.1" xmlns="http://www.w3.org/2000/svg" xmlns:xlink="http://www.w3.org/1999/xlink">
    <!-- Generator: Sketch 50.2 (55047) - http://www.bohemiancoding.com/sketch -->
    <title>icon_eosbuy</title>
    <desc>Created with Sketch.</desc>
    <defs></defs>
    <g id="Symbols" stroke="none" stroke-width="1" fill="none" fill-rule="evenodd">
        <g id="icon_eos_buy" fill="#98FF27" fill-rule="nonzero">
            <g>
                <path d="M17.5,3.33171942 L9.47842947,9.50701652 L4.6243742,22.4854034 L13.5,27.8325459 L22.3756258,22.4854034 L23.5215705,9.50701652 L17.5,3.33171942 Z M25.3970138,8.49298348 L24.5429585,23.5145966 L13.5,30.1674541 L2.45704151,23.5145966 L7.60298624,8.49298348 L17.5,0.668280579 L25.3970138,8.49298348 Z" id="Polygon"></path>
                <path d="M6.27275866,21.5884573 L20.808657,21.5884573 L16.5878906,9.50701652 L6.27275866,21.5884573 Z M24.2727587,23.5884573 L2.80865705,23.5884573 L17.0878906,5.31460575 L24.2727587,23.5884573 Z" id="Polygon-2"></path>
                <polygon id="Path-4" points="16.5878906 2.29882812 18.5878906 2.29882812 17.5878906 8.33038337 15.5878906 8.33038337"></polygon>
                <polygon id="Path-5" points="13.5040734 25.4144427 22.8318735 9.03037022 24.2207031 9.62582024 13.1098633 29.1889648 8 9.62582024 9.38882959 9.03037022"></polygon>
            </g>
        </g>
    </g>
</svg>