<?xml version="1.0" encoding="UTF-8"?>
<svg width="328px" height="18px" viewBox="0 0 328 18" version="1.1" xmlns="http://www.w3.org/2000/svg" xmlns:xlink="http://www.w3.org/1999/xlink">
    <!-- Generator: Sketch 50.2 (55047) - http://www.bohemiancoding.com/sketch -->
    <title>img_ctrlbar_normal</title>
    <desc>Created with Sketch.</desc>
    <defs>
        <linearGradient x1="8.11299086%" y1="100%" x2="8.11299086%" y2="19.8486328%" id="linearGradient-1">
            <stop stop-color="#6B3F29" offset="0%"></stop>
            <stop stop-color="#342117" offset="100%"></stop>
        </linearGradient>
        <path d="M15.245371,4 L312.754629,4 C314.22075,2.17107503 316.473615,1 319,1 C323.418278,1 327,4.581722 327,9 C327,13.418278 323.418278,17 319,17 C316.473615,17 314.22075,15.828925 312.754629,14 L15.245371,14 C13.7792499,15.828925 11.5263846,17 9,17 C4.581722,17 1,13.418278 1,9 C1,4.581722 4.581722,1 9,1 C11.5263846,1 13.7792499,2.17107503 15.245371,4 Z" id="path-2"></path>
        <filter x="-0.2%" y="-3.1%" width="100.3%" height="112.5%" filterUnits="objectBoundingBox" id="filter-3">
            <feOffset dx="0" dy="1" in="SourceAlpha" result="shadowOffsetOuter1"></feOffset>
            <feColorMatrix values="0 0 0 0 0.74354273   0 0 0 0 0.409408997   0 0 0 0 0.19864772  0 0 0 1 0" type="matrix" in="shadowOffsetOuter1"></feColorMatrix>
        </filter>
    </defs>
    <g id="Symbols" stroke="none" stroke-width="1" fill="none" fill-rule="evenodd">
        <g id="img_ctrlbar_normal">
            <g id="Combined-Shape">
                <g>
                    <use fill="black" fill-opacity="1" filter="url(#filter-3)" xlink:href="#path-2"></use>
                    <use fill="url(#linearGradient-1)" fill-rule="evenodd" xlink:href="#path-2"></use>
                </g>
            </g>
        </g>
    </g>
</svg>