<?xml version="1.0" encoding="UTF-8"?>
<svg width="116px" height="46px" viewBox="0 0 116 46" version="1.1" xmlns="http://www.w3.org/2000/svg" xmlns:xlink="http://www.w3.org/1999/xlink">
    <!-- Generator: Sketch 50.2 (55047) - http://www.bohemiancoding.com/sketch -->
    <title>img_dice</title>
    <desc>Created with Sketch.</desc>
    <defs>
        <path d="M14,7.61 C14,7.18066452 14.1609984,6.80500161 14.483,6.483 C14.8050016,6.16099839 15.1806645,6 15.61,6 C16.0700023,6 16.4533318,6.16099839 16.76,6.483 C17.0666682,6.80500161 17.22,7.18066452 17.22,7.61 C17.22,8.0700023 17.0666682,8.46099839 16.76,8.783 C16.4533318,9.10500161 16.0700023,9.266 15.61,9.266 C15.1806645,9.266 14.8050016,9.10500161 14.483,8.783 C14.1609984,8.46099839 14,8.0700023 14,7.61 Z M17.91,7.61 C17.91,7.18066452 18.0709984,6.80500161 18.393,6.483 C18.7150016,6.16099839 19.0906645,6 19.52,6 C19.9800023,6 20.3633318,6.16099839 20.67,6.483 C20.9766682,6.80500161 21.13,7.18066452 21.13,7.61 C21.13,8.0700023 20.9766682,8.46099839 20.67,8.783 C20.3633318,9.10500161 19.9800023,9.266 19.52,9.266 C19.0906645,9.266 18.7150016,9.10500161 18.393,8.783 C18.0709984,8.46099839 17.91,8.0700023 17.91,7.61 Z M14,11.566 C14,11.1059977 14.1609984,10.7150016 14.483,10.393 C14.8050016,10.0709984 15.1806645,9.91 15.61,9.91 C16.0700023,9.91 16.4533318,10.0709984 16.76,10.393 C17.0666682,10.7150016 17.22,11.1059977 17.22,11.566 C17.22,11.9953355 17.0666682,12.3709984 16.76,12.693 C16.4533318,13.0150016 16.0700023,13.176 15.61,13.176 C15.1806645,13.176 14.8050016,13.0150016 14.483,12.693 C14.1609984,12.3709984 14,11.9953355 14,11.566 Z M17.91,11.566 C17.91,11.1059977 18.0709984,10.7150016 18.393,10.393 C18.7150016,10.0709984 19.0906645,9.91 19.52,9.91 C19.9800023,9.91 20.3633318,10.0709984 20.67,10.393 C20.9766682,10.7150016 21.13,11.1059977 21.13,11.566 C21.13,11.9953355 20.9766682,12.3709984 20.67,12.693 C20.3633318,13.0150016 19.9800023,13.176 19.52,13.176 C19.0906645,13.176 18.7150016,13.0150016 18.393,12.693 C18.0709984,12.3709984 17.91,11.9953355 17.91,11.566 Z M21.82,7.61 C21.82,7.18066452 21.9809984,6.80500161 22.303,6.483 C22.6250016,6.16099839 23.0006645,6 23.43,6 C23.8900023,6 24.2733318,6.16099839 24.58,6.483 C24.8866682,6.80500161 25.04,7.18066452 25.04,7.61 C25.04,8.0700023 24.8866682,8.46099839 24.58,8.783 C24.2733318,9.10500161 23.8900023,9.266 23.43,9.266 C23.0006645,9.266 22.6250016,9.10500161 22.303,8.783 C21.9809984,8.46099839 21.82,8.0700023 21.82,7.61 Z M25.73,7.61 C25.73,7.18066452 25.8909984,6.80500161 26.213,6.483 C26.5350016,6.16099839 26.9106645,6 27.34,6 C27.8000023,6 28.1833318,6.16099839 28.49,6.483 C28.7966682,6.80500161 28.95,7.18066452 28.95,7.61 C28.95,8.0700023 28.7966682,8.46099839 28.49,8.783 C28.1833318,9.10500161 27.8000023,9.266 27.34,9.266 C26.9106645,9.266 26.5350016,9.10500161 26.213,8.783 C25.8909984,8.46099839 25.73,8.0700023 25.73,7.61 Z M21.82,11.566 C21.82,11.1059977 21.9809984,10.7150016 22.303,10.393 C22.6250016,10.0709984 23.0006645,9.91 23.43,9.91 C23.8900023,9.91 24.2733318,10.0709984 24.58,10.393 C24.8866682,10.7150016 25.04,11.1059977 25.04,11.566 C25.04,11.9953355 24.8866682,12.3709984 24.58,12.693 C24.2733318,13.0150016 23.8900023,13.176 23.43,13.176 C23.0006645,13.176 22.6250016,13.0150016 22.303,12.693 C21.9809984,12.3709984 21.82,11.9953355 21.82,11.566 Z M25.73,11.566 C25.73,11.1059977 25.8909984,10.7150016 26.213,10.393 C26.5350016,10.0709984 26.9106645,9.91 27.34,9.91 C27.8000023,9.91 28.1833318,10.0709984 28.49,10.393 C28.7966682,10.7150016 28.95,11.1059977 28.95,11.566 C28.95,11.9953355 28.7966682,12.3709984 28.49,12.693 C28.1833318,13.0150016 27.8000023,13.176 27.34,13.176 C26.9106645,13.176 26.5350016,13.0150016 26.213,12.693 C25.8909984,12.3709984 25.73,11.9953355 25.73,11.566 Z M29.64,7.61 C29.64,7.18066452 29.8009984,6.80500161 30.123,6.483 C30.4450016,6.16099839 30.8206645,6 31.25,6 C31.7100023,6 32.0933318,6.16099839 32.4,6.483 C32.7066682,6.80500161 32.86,7.18066452 32.86,7.61 C32.86,8.0700023 32.7066682,8.46099839 32.4,8.783 C32.0933318,9.10500161 31.7100023,9.266 31.25,9.266 C30.8206645,9.266 30.4450016,9.10500161 30.123,8.783 C29.8009984,8.46099839 29.64,8.0700023 29.64,7.61 Z M29.64,11.566 C29.64,11.1059977 29.8009984,10.7150016 30.123,10.393 C30.4450016,10.0709984 30.8206645,9.91 31.25,9.91 C31.7100023,9.91 32.0933318,10.0709984 32.4,10.393 C32.7066682,10.7150016 32.86,11.1059977 32.86,11.566 C32.86,11.9953355 32.7066682,12.3709984 32.4,12.693 C32.0933318,13.0150016 31.7100023,13.176 31.25,13.176 C30.8206645,13.176 30.4450016,13.0150016 30.123,12.693 C29.8009984,12.3709984 29.64,11.9953355 29.64,11.566 Z M33.55,11.566 C33.55,11.1059977 33.7109984,10.7150016 34.033,10.393 C34.3550016,10.0709984 34.7306645,9.91 35.16,9.91 C35.6200023,9.91 36.0109984,10.0709984 36.333,10.393 C36.6550016,10.7150016 36.816,11.1059977 36.816,11.566 C36.816,11.9953355 36.6550016,12.3709984 36.333,12.693 C36.0109984,13.0150016 35.6200023,13.176 35.16,13.176 C34.7306645,13.176 34.3550016,13.0150016 34.033,12.693 C33.7109984,12.3709984 33.55,11.9953355 33.55,11.566 Z M14,15.476 C14,15.0159977 14.1609984,14.6250016 14.483,14.303 C14.8050016,13.9809984 15.1806645,13.82 15.61,13.82 C16.0700023,13.82 16.4533318,13.9809984 16.76,14.303 C17.0666682,14.6250016 17.22,15.0159977 17.22,15.476 C17.22,15.9053355 17.0666682,16.2809984 16.76,16.603 C16.4533318,16.9250016 16.0700023,17.086 15.61,17.086 C15.1806645,17.086 14.8050016,16.9250016 14.483,16.603 C14.1609984,16.2809984 14,15.9053355 14,15.476 Z M17.91,15.476 C17.91,15.0159977 18.0709984,14.6250016 18.393,14.303 C18.7150016,13.9809984 19.0906645,13.82 19.52,13.82 C19.9800023,13.82 20.3633318,13.9809984 20.67,14.303 C20.9766682,14.6250016 21.13,15.0159977 21.13,15.476 C21.13,15.9053355 20.9766682,16.2809984 20.67,16.603 C20.3633318,16.9250016 19.9800023,17.086 19.52,17.086 C19.0906645,17.086 18.7150016,16.9250016 18.393,16.603 C18.0709984,16.2809984 17.91,15.9053355 17.91,15.476 Z M14,19.386 C14,18.9259977 14.1609984,18.5350016 14.483,18.213 C14.8050016,17.8909984 15.1806645,17.73 15.61,17.73 C16.0700023,17.73 16.4533318,17.8909984 16.76,18.213 C17.0666682,18.5350016 17.22,18.9259977 17.22,19.386 C17.22,19.8153355 17.0666682,20.1909984 16.76,20.513 C16.4533318,20.8350016 16.0700023,20.996 15.61,20.996 C15.1806645,20.996 14.8050016,20.8350016 14.483,20.513 C14.1609984,20.1909984 14,19.8153355 14,19.386 Z M17.91,19.386 C17.91,18.9259977 18.0709984,18.5350016 18.393,18.213 C18.7150016,17.8909984 19.0906645,17.73 19.52,17.73 C19.9800023,17.73 20.3633318,17.8909984 20.67,18.213 C20.9766682,18.5350016 21.13,18.9259977 21.13,19.386 C21.13,19.8153355 20.9766682,20.1909984 20.67,20.513 C20.3633318,20.8350016 19.9800023,20.996 19.52,20.996 C19.0906645,20.996 18.7150016,20.8350016 18.393,20.513 C18.0709984,20.1909984 17.91,19.8153355 17.91,19.386 Z M29.64,15.476 C29.64,15.0159977 29.8009984,14.6250016 30.123,14.303 C30.4450016,13.9809984 30.8206645,13.82 31.25,13.82 C31.7100023,13.82 32.0933318,13.9809984 32.4,14.303 C32.7066682,14.6250016 32.86,15.0159977 32.86,15.476 C32.86,15.9053355 32.7066682,16.2809984 32.4,16.603 C32.0933318,16.9250016 31.7100023,17.086 31.25,17.086 C30.8206645,17.086 30.4450016,16.9250016 30.123,16.603 C29.8009984,16.2809984 29.64,15.9053355 29.64,15.476 Z M33.55,15.476 C33.55,15.0159977 33.7109984,14.6250016 34.033,14.303 C34.3550016,13.9809984 34.7306645,13.82 35.16,13.82 C35.6200023,13.82 36.0109984,13.9809984 36.333,14.303 C36.6550016,14.6250016 36.816,15.0159977 36.816,15.476 C36.816,15.9053355 36.6550016,16.2809984 36.333,16.603 C36.0109984,16.9250016 35.6200023,17.086 35.16,17.086 C34.7306645,17.086 34.3550016,16.9250016 34.033,16.603 C33.7109984,16.2809984 33.55,15.9053355 33.55,15.476 Z M29.64,19.386 C29.64,18.9259977 29.8009984,18.5350016 30.123,18.213 C30.4450016,17.8909984 30.8206645,17.73 31.25,17.73 C31.7100023,17.73 32.0933318,17.8909984 32.4,18.213 C32.7066682,18.5350016 32.86,18.9259977 32.86,19.386 C32.86,19.8153355 32.7066682,20.1909984 32.4,20.513 C32.0933318,20.8350016 31.7100023,20.996 31.25,20.996 C30.8206645,20.996 30.4450016,20.8350016 30.123,20.513 C29.8009984,20.1909984 29.64,19.8153355 29.64,19.386 Z M33.55,19.386 C33.55,18.9259977 33.7109984,18.5350016 34.033,18.213 C34.3550016,17.8909984 34.7306645,17.73 35.16,17.73 C35.6200023,17.73 36.0109984,17.8909984 36.333,18.213 C36.6550016,18.5350016 36.816,18.9259977 36.816,19.386 C36.816,19.8153355 36.6550016,20.1909984 36.333,20.513 C36.0109984,20.8350016 35.6200023,20.996 35.16,20.996 C34.7306645,20.996 34.3550016,20.8350016 34.033,20.513 C33.7109984,20.1909984 33.55,19.8153355 33.55,19.386 Z M14,23.296 C14,22.8359977 14.1609984,22.4526682 14.483,22.146 C14.8050016,21.8393318 15.1806645,21.686 15.61,21.686 C16.0700023,21.686 16.4533318,21.8393318 16.76,22.146 C17.0666682,22.4526682 17.22,22.8359977 17.22,23.296 C17.22,23.7253355 17.0666682,24.1009984 16.76,24.423 C16.4533318,24.7450016 16.0700023,24.906 15.61,24.906 C15.1806645,24.906 14.8050016,24.7450016 14.483,24.423 C14.1609984,24.1009984 14,23.7253355 14,23.296 Z M17.91,23.296 C17.91,22.8359977 18.0709984,22.4526682 18.393,22.146 C18.7150016,21.8393318 19.0906645,21.686 19.52,21.686 C19.9800023,21.686 20.3633318,21.8393318 20.67,22.146 C20.9766682,22.4526682 21.13,22.8359977 21.13,23.296 C21.13,23.7253355 20.9766682,24.1009984 20.67,24.423 C20.3633318,24.7450016 19.9800023,24.906 19.52,24.906 C19.0906645,24.906 18.7150016,24.7450016 18.393,24.423 C18.0709984,24.1009984 17.91,23.7253355 17.91,23.296 Z M14,27.206 C14,26.7459977 14.1609984,26.3626682 14.483,26.056 C14.8050016,25.7493318 15.1806645,25.596 15.61,25.596 C16.0700023,25.596 16.4533318,25.7493318 16.76,26.056 C17.0666682,26.3626682 17.22,26.7459977 17.22,27.206 C17.22,27.6353355 17.0666682,28.0109984 16.76,28.333 C16.4533318,28.6550016 16.0700023,28.816 15.61,28.816 C15.1806645,28.816 14.8050016,28.6550016 14.483,28.333 C14.1609984,28.0109984 14,27.6353355 14,27.206 Z M17.91,27.206 C17.91,26.7459977 18.0709984,26.3626682 18.393,26.056 C18.7150016,25.7493318 19.0906645,25.596 19.52,25.596 C19.9800023,25.596 20.3633318,25.7493318 20.67,26.056 C20.9766682,26.3626682 21.13,26.7459977 21.13,27.206 C21.13,27.6353355 20.9766682,28.0109984 20.67,28.333 C20.3633318,28.6550016 19.9800023,28.816 19.52,28.816 C19.0906645,28.816 18.7150016,28.6550016 18.393,28.333 C18.0709984,28.0109984 17.91,27.6353355 17.91,27.206 Z M29.64,23.296 C29.64,22.8359977 29.8009984,22.4526682 30.123,22.146 C30.4450016,21.8393318 30.8206645,21.686 31.25,21.686 C31.7100023,21.686 32.0933318,21.8393318 32.4,22.146 C32.7066682,22.4526682 32.86,22.8359977 32.86,23.296 C32.86,23.7253355 32.7066682,24.1009984 32.4,24.423 C32.0933318,24.7450016 31.7100023,24.906 31.25,24.906 C30.8206645,24.906 30.4450016,24.7450016 30.123,24.423 C29.8009984,24.1009984 29.64,23.7253355 29.64,23.296 Z M33.55,23.296 C33.55,22.8359977 33.7109984,22.4526682 34.033,22.146 C34.3550016,21.8393318 34.7306645,21.686 35.16,21.686 C35.6200023,21.686 36.0109984,21.8393318 36.333,22.146 C36.6550016,22.4526682 36.816,22.8359977 36.816,23.296 C36.816,23.7253355 36.6550016,24.1009984 36.333,24.423 C36.0109984,24.7450016 35.6200023,24.906 35.16,24.906 C34.7306645,24.906 34.3550016,24.7450016 34.033,24.423 C33.7109984,24.1009984 33.55,23.7253355 33.55,23.296 Z M29.64,27.206 C29.64,26.7459977 29.8009984,26.3626682 30.123,26.056 C30.4450016,25.7493318 30.8206645,25.596 31.25,25.596 C31.7100023,25.596 32.0933318,25.7493318 32.4,26.056 C32.7066682,26.3626682 32.86,26.7459977 32.86,27.206 C32.86,27.6353355 32.7066682,28.0109984 32.4,28.333 C32.0933318,28.6550016 31.7100023,28.816 31.25,28.816 C30.8206645,28.816 30.4450016,28.6550016 30.123,28.333 C29.8009984,28.0109984 29.64,27.6353355 29.64,27.206 Z M33.55,27.206 C33.55,26.7459977 33.7109984,26.3626682 34.033,26.056 C34.3550016,25.7493318 34.7306645,25.596 35.16,25.596 C35.6200023,25.596 36.0109984,25.7493318 36.333,26.056 C36.6550016,26.3626682 36.816,26.7459977 36.816,27.206 C36.816,27.6353355 36.6550016,28.0109984 36.333,28.333 C36.0109984,28.6550016 35.6200023,28.816 35.16,28.816 C34.7306645,28.816 34.3550016,28.6550016 34.033,28.333 C33.7109984,28.0109984 33.55,27.6353355 33.55,27.206 Z M14,31.116 C14,30.6559977 14.1609984,30.2726682 14.483,29.966 C14.8050016,29.6593318 15.1806645,29.506 15.61,29.506 C16.0700023,29.506 16.4533318,29.6593318 16.76,29.966 C17.0666682,30.2726682 17.22,30.6559977 17.22,31.116 C17.22,31.5453355 17.0666682,31.9209984 16.76,32.243 C16.4533318,32.5650016 16.0700023,32.726 15.61,32.726 C15.1806645,32.726 14.8050016,32.5650016 14.483,32.243 C14.1609984,31.9209984 14,31.5453355 14,31.116 Z M17.91,31.116 C17.91,30.6559977 18.0709984,30.2726682 18.393,29.966 C18.7150016,29.6593318 19.0906645,29.506 19.52,29.506 C19.9800023,29.506 20.3633318,29.6593318 20.67,29.966 C20.9766682,30.2726682 21.13,30.6559977 21.13,31.116 C21.13,31.5453355 20.9766682,31.9209984 20.67,32.243 C20.3633318,32.5650016 19.9800023,32.726 19.52,32.726 C19.0906645,32.726 18.7150016,32.5650016 18.393,32.243 C18.0709984,31.9209984 17.91,31.5453355 17.91,31.116 Z M14,35.026 C14,34.5659977 14.1609984,34.1826682 14.483,33.876 C14.8050016,33.5693318 15.1806645,33.416 15.61,33.416 C16.0700023,33.416 16.4533318,33.5693318 16.76,33.876 C17.0666682,34.1826682 17.22,34.5659977 17.22,35.026 C17.22,35.4553355 17.0666682,35.8309984 16.76,36.153 C16.4533318,36.4750016 16.0700023,36.636 15.61,36.636 C15.1806645,36.636 14.8050016,36.4750016 14.483,36.153 C14.1609984,35.8309984 14,35.4553355 14,35.026 Z M17.91,35.026 C17.91,34.5659977 18.0709984,34.1826682 18.393,33.876 C18.7150016,33.5693318 19.0906645,33.416 19.52,33.416 C19.9800023,33.416 20.3633318,33.5693318 20.67,33.876 C20.9766682,34.1826682 21.13,34.5659977 21.13,35.026 C21.13,35.4553355 20.9766682,35.8309984 20.67,36.153 C20.3633318,36.4750016 19.9800023,36.636 19.52,36.636 C19.0906645,36.636 18.7150016,36.4750016 18.393,36.153 C18.0709984,35.8309984 17.91,35.4553355 17.91,35.026 Z M21.82,31.116 C21.82,30.6559977 21.9809984,30.2726682 22.303,29.966 C22.6250016,29.6593318 23.0006645,29.506 23.43,29.506 C23.8900023,29.506 24.2733318,29.6593318 24.58,29.966 C24.8866682,30.2726682 25.04,30.6559977 25.04,31.116 C25.04,31.5453355 24.8866682,31.9209984 24.58,32.243 C24.2733318,32.5650016 23.8900023,32.726 23.43,32.726 C23.0006645,32.726 22.6250016,32.5650016 22.303,32.243 C21.9809984,31.9209984 21.82,31.5453355 21.82,31.116 Z M25.73,31.116 C25.73,30.6559977 25.8909984,30.2726682 26.213,29.966 C26.5350016,29.6593318 26.9106645,29.506 27.34,29.506 C27.8000023,29.506 28.1833318,29.6593318 28.49,29.966 C28.7966682,30.2726682 28.95,30.6559977 28.95,31.116 C28.95,31.5453355 28.7966682,31.9209984 28.49,32.243 C28.1833318,32.5650016 27.8000023,32.726 27.34,32.726 C26.9106645,32.726 26.5350016,32.5650016 26.213,32.243 C25.8909984,31.9209984 25.73,31.5453355 25.73,31.116 Z M21.82,35.026 C21.82,34.5659977 21.9809984,34.1826682 22.303,33.876 C22.6250016,33.5693318 23.0006645,33.416 23.43,33.416 C23.8900023,33.416 24.2733318,33.5693318 24.58,33.876 C24.8866682,34.1826682 25.04,34.5659977 25.04,35.026 C25.04,35.4553355 24.8866682,35.8309984 24.58,36.153 C24.2733318,36.4750016 23.8900023,36.636 23.43,36.636 C23.0006645,36.636 22.6250016,36.4750016 22.303,36.153 C21.9809984,35.8309984 21.82,35.4553355 21.82,35.026 Z M25.73,35.026 C25.73,34.5659977 25.8909984,34.1826682 26.213,33.876 C26.5350016,33.5693318 26.9106645,33.416 27.34,33.416 C27.8000023,33.416 28.1833318,33.5693318 28.49,33.876 C28.7966682,34.1826682 28.95,34.5659977 28.95,35.026 C28.95,35.4553355 28.7966682,35.8309984 28.49,36.153 C28.1833318,36.4750016 27.8000023,36.636 27.34,36.636 C26.9106645,36.636 26.5350016,36.4750016 26.213,36.153 C25.8909984,35.8309984 25.73,35.4553355 25.73,35.026 Z M29.64,31.116 C29.64,30.6559977 29.8009984,30.2726682 30.123,29.966 C30.4450016,29.6593318 30.8206645,29.506 31.25,29.506 C31.7100023,29.506 32.0933318,29.6593318 32.4,29.966 C32.7066682,30.2726682 32.86,30.6559977 32.86,31.116 C32.86,31.5453355 32.7066682,31.9209984 32.4,32.243 C32.0933318,32.5650016 31.7100023,32.726 31.25,32.726 C30.8206645,32.726 30.4450016,32.5650016 30.123,32.243 C29.8009984,31.9209984 29.64,31.5453355 29.64,31.116 Z M33.55,31.116 C33.55,30.6559977 33.7109984,30.2726682 34.033,29.966 C34.3550016,29.6593318 34.7306645,29.506 35.16,29.506 C35.6200023,29.506 36.0109984,29.6593318 36.333,29.966 C36.6550016,30.2726682 36.816,30.6559977 36.816,31.116 C36.816,31.5453355 36.6550016,31.9209984 36.333,32.243 C36.0109984,32.5650016 35.6200023,32.726 35.16,32.726 C34.7306645,32.726 34.3550016,32.5650016 34.033,32.243 C33.7109984,31.9209984 33.55,31.5453355 33.55,31.116 Z M29.64,35.026 C29.64,34.5659977 29.8009984,34.1826682 30.123,33.876 C30.4450016,33.5693318 30.8206645,33.416 31.25,33.416 C31.7100023,33.416 32.0933318,33.5693318 32.4,33.876 C32.7066682,34.1826682 32.86,34.5659977 32.86,35.026 C32.86,35.4553355 32.7066682,35.8309984 32.4,36.153 C32.0933318,36.4750016 31.7100023,36.636 31.25,36.636 C30.8206645,36.636 30.4450016,36.4750016 30.123,36.153 C29.8009984,35.8309984 29.64,35.4553355 29.64,35.026 Z M40.726,7.61 C40.726,7.18066452 40.8869984,6.80500161 41.209,6.483 C41.5310016,6.16099839 41.9066645,6 42.336,6 C42.7960023,6 43.1793318,6.16099839 43.486,6.483 C43.7926682,6.80500161 43.946,7.18066452 43.946,7.61 C43.946,8.0700023 43.7926682,8.46099839 43.486,8.783 C43.1793318,9.10500161 42.7960023,9.266 42.336,9.266 C41.9066645,9.266 41.5310016,9.10500161 41.209,8.783 C40.8869984,8.46099839 40.726,8.0700023 40.726,7.61 Z M44.636,7.61 C44.636,7.18066452 44.7969984,6.80500161 45.119,6.483 C45.4410016,6.16099839 45.8166645,6 46.246,6 C46.7060023,6 47.0893318,6.16099839 47.396,6.483 C47.7026682,6.80500161 47.856,7.18066452 47.856,7.61 C47.856,8.0700023 47.7026682,8.46099839 47.396,8.783 C47.0893318,9.10500161 46.7060023,9.266 46.246,9.266 C45.8166645,9.266 45.4410016,9.10500161 45.119,8.783 C44.7969984,8.46099839 44.636,8.0700023 44.636,7.61 Z M40.726,11.566 C40.726,11.1059977 40.8869984,10.7150016 41.209,10.393 C41.5310016,10.0709984 41.9066645,9.91 42.336,9.91 C42.7960023,9.91 43.1793318,10.0709984 43.486,10.393 C43.7926682,10.7150016 43.946,11.1059977 43.946,11.566 C43.946,11.9953355 43.7926682,12.3709984 43.486,12.693 C43.1793318,13.0150016 42.7960023,13.176 42.336,13.176 C41.9066645,13.176 41.5310016,13.0150016 41.209,12.693 C40.8869984,12.3709984 40.726,11.9953355 40.726,11.566 Z M44.636,11.566 C44.636,11.1059977 44.7969984,10.7150016 45.119,10.393 C45.4410016,10.0709984 45.8166645,9.91 46.246,9.91 C46.7060023,9.91 47.0893318,10.0709984 47.396,10.393 C47.7026682,10.7150016 47.856,11.1059977 47.856,11.566 C47.856,11.9953355 47.7026682,12.3709984 47.396,12.693 C47.0893318,13.0150016 46.7060023,13.176 46.246,13.176 C45.8166645,13.176 45.4410016,13.0150016 45.119,12.693 C44.7969984,12.3709984 44.636,11.9953355 44.636,11.566 Z M40.726,15.476 C40.726,15.0159977 40.8869984,14.6250016 41.209,14.303 C41.5310016,13.9809984 41.9066645,13.82 42.336,13.82 C42.7960023,13.82 43.1793318,13.9809984 43.486,14.303 C43.7926682,14.6250016 43.946,15.0159977 43.946,15.476 C43.946,15.9053355 43.7926682,16.2809984 43.486,16.603 C43.1793318,16.9250016 42.7960023,17.086 42.336,17.086 C41.9066645,17.086 41.5310016,16.9250016 41.209,16.603 C40.8869984,16.2809984 40.726,15.9053355 40.726,15.476 Z M44.636,15.476 C44.636,15.0159977 44.7969984,14.6250016 45.119,14.303 C45.4410016,13.9809984 45.8166645,13.82 46.246,13.82 C46.7060023,13.82 47.0893318,13.9809984 47.396,14.303 C47.7026682,14.6250016 47.856,15.0159977 47.856,15.476 C47.856,15.9053355 47.7026682,16.2809984 47.396,16.603 C47.0893318,16.9250016 46.7060023,17.086 46.246,17.086 C45.8166645,17.086 45.4410016,16.9250016 45.119,16.603 C44.7969984,16.2809984 44.636,15.9053355 44.636,15.476 Z M40.726,19.386 C40.726,18.9259977 40.8869984,18.5350016 41.209,18.213 C41.5310016,17.8909984 41.9066645,17.73 42.336,17.73 C42.7960023,17.73 43.1793318,17.8909984 43.486,18.213 C43.7926682,18.5350016 43.946,18.9259977 43.946,19.386 C43.946,19.8153355 43.7926682,20.1909984 43.486,20.513 C43.1793318,20.8350016 42.7960023,20.996 42.336,20.996 C41.9066645,20.996 41.5310016,20.8350016 41.209,20.513 C40.8869984,20.1909984 40.726,19.8153355 40.726,19.386 Z M44.636,19.386 C44.636,18.9259977 44.7969984,18.5350016 45.119,18.213 C45.4410016,17.8909984 45.8166645,17.73 46.246,17.73 C46.7060023,17.73 47.0893318,17.8909984 47.396,18.213 C47.7026682,18.5350016 47.856,18.9259977 47.856,19.386 C47.856,19.8153355 47.7026682,20.1909984 47.396,20.513 C47.0893318,20.8350016 46.7060023,20.996 46.246,20.996 C45.8166645,20.996 45.4410016,20.8350016 45.119,20.513 C44.7969984,20.1909984 44.636,19.8153355 44.636,19.386 Z M40.726,23.296 C40.726,22.8359977 40.8869984,22.4526682 41.209,22.146 C41.5310016,21.8393318 41.9066645,21.686 42.336,21.686 C42.7960023,21.686 43.1793318,21.8393318 43.486,22.146 C43.7926682,22.4526682 43.946,22.8359977 43.946,23.296 C43.946,23.7253355 43.7926682,24.1009984 43.486,24.423 C43.1793318,24.7450016 42.7960023,24.906 42.336,24.906 C41.9066645,24.906 41.5310016,24.7450016 41.209,24.423 C40.8869984,24.1009984 40.726,23.7253355 40.726,23.296 Z M44.636,23.296 C44.636,22.8359977 44.7969984,22.4526682 45.119,22.146 C45.4410016,21.8393318 45.8166645,21.686 46.246,21.686 C46.7060023,21.686 47.0893318,21.8393318 47.396,22.146 C47.7026682,22.4526682 47.856,22.8359977 47.856,23.296 C47.856,23.7253355 47.7026682,24.1009984 47.396,24.423 C47.0893318,24.7450016 46.7060023,24.906 46.246,24.906 C45.8166645,24.906 45.4410016,24.7450016 45.119,24.423 C44.7969984,24.1009984 44.636,23.7253355 44.636,23.296 Z M40.726,27.206 C40.726,26.7459977 40.8869984,26.3626682 41.209,26.056 C41.5310016,25.7493318 41.9066645,25.596 42.336,25.596 C42.7960023,25.596 43.1793318,25.7493318 43.486,26.056 C43.7926682,26.3626682 43.946,26.7459977 43.946,27.206 C43.946,27.6353355 43.7926682,28.0109984 43.486,28.333 C43.1793318,28.6550016 42.7960023,28.816 42.336,28.816 C41.9066645,28.816 41.5310016,28.6550016 41.209,28.333 C40.8869984,28.0109984 40.726,27.6353355 40.726,27.206 Z M44.636,27.206 C44.636,26.7459977 44.7969984,26.3626682 45.119,26.056 C45.4410016,25.7493318 45.8166645,25.596 46.246,25.596 C46.7060023,25.596 47.0893318,25.7493318 47.396,26.056 C47.7026682,26.3626682 47.856,26.7459977 47.856,27.206 C47.856,27.6353355 47.7026682,28.0109984 47.396,28.333 C47.0893318,28.6550016 46.7060023,28.816 46.246,28.816 C45.8166645,28.816 45.4410016,28.6550016 45.119,28.333 C44.7969984,28.0109984 44.636,27.6353355 44.636,27.206 Z M40.726,31.116 C40.726,30.6559977 40.8869984,30.2726682 41.209,29.966 C41.5310016,29.6593318 41.9066645,29.506 42.336,29.506 C42.7960023,29.506 43.1793318,29.6593318 43.486,29.966 C43.7926682,30.2726682 43.946,30.6559977 43.946,31.116 C43.946,31.5453355 43.7926682,31.9209984 43.486,32.243 C43.1793318,32.5650016 42.7960023,32.726 42.336,32.726 C41.9066645,32.726 41.5310016,32.5650016 41.209,32.243 C40.8869984,31.9209984 40.726,31.5453355 40.726,31.116 Z M44.636,31.116 C44.636,30.6559977 44.7969984,30.2726682 45.119,29.966 C45.4410016,29.6593318 45.8166645,29.506 46.246,29.506 C46.7060023,29.506 47.0893318,29.6593318 47.396,29.966 C47.7026682,30.2726682 47.856,30.6559977 47.856,31.116 C47.856,31.5453355 47.7026682,31.9209984 47.396,32.243 C47.0893318,32.5650016 46.7060023,32.726 46.246,32.726 C45.8166645,32.726 45.4410016,32.5650016 45.119,32.243 C44.7969984,31.9209984 44.636,31.5453355 44.636,31.116 Z M40.726,35.026 C40.726,34.5659977 40.8869984,34.1826682 41.209,33.876 C41.5310016,33.5693318 41.9066645,33.416 42.336,33.416 C42.7960023,33.416 43.1793318,33.5693318 43.486,33.876 C43.7926682,34.1826682 43.946,34.5659977 43.946,35.026 C43.946,35.4553355 43.7926682,35.8309984 43.486,36.153 C43.1793318,36.4750016 42.7960023,36.636 42.336,36.636 C41.9066645,36.636 41.5310016,36.4750016 41.209,36.153 C40.8869984,35.8309984 40.726,35.4553355 40.726,35.026 Z M44.636,35.026 C44.636,34.5659977 44.7969984,34.1826682 45.119,33.876 C45.4410016,33.5693318 45.8166645,33.416 46.246,33.416 C46.7060023,33.416 47.0893318,33.5693318 47.396,33.876 C47.7026682,34.1826682 47.856,34.5659977 47.856,35.026 C47.856,35.4553355 47.7026682,35.8309984 47.396,36.153 C47.0893318,36.4750016 46.7060023,36.636 46.246,36.636 C45.8166645,36.636 45.4410016,36.4750016 45.119,36.153 C44.7969984,35.8309984 44.636,35.4553355 44.636,35.026 Z M55.676,7.61 C55.676,7.18066452 55.8369984,6.80500161 56.159,6.483 C56.4810016,6.16099839 56.8566645,6 57.286,6 C57.7460023,6 58.1293318,6.16099839 58.436,6.483 C58.7426682,6.80500161 58.896,7.18066452 58.896,7.61 C58.896,8.0700023 58.7426682,8.46099839 58.436,8.783 C58.1293318,9.10500161 57.7460023,9.266 57.286,9.266 C56.8566645,9.266 56.4810016,9.10500161 56.159,8.783 C55.8369984,8.46099839 55.676,8.0700023 55.676,7.61 Z M51.766,11.566 C51.766,11.1059977 51.9269984,10.7150016 52.249,10.393 C52.5710016,10.0709984 52.9466645,9.91 53.376,9.91 C53.8360023,9.91 54.2193318,10.0709984 54.526,10.393 C54.8326682,10.7150016 54.986,11.1059977 54.986,11.566 C54.986,11.9953355 54.8326682,12.3709984 54.526,12.693 C54.2193318,13.0150016 53.8360023,13.176 53.376,13.176 C52.9466645,13.176 52.5710016,13.0150016 52.249,12.693 C51.9269984,12.3709984 51.766,11.9953355 51.766,11.566 Z M55.676,11.566 C55.676,11.1059977 55.8369984,10.7150016 56.159,10.393 C56.4810016,10.0709984 56.8566645,9.91 57.286,9.91 C57.7460023,9.91 58.1293318,10.0709984 58.436,10.393 C58.7426682,10.7150016 58.896,11.1059977 58.896,11.566 C58.896,11.9953355 58.7426682,12.3709984 58.436,12.693 C58.1293318,13.0150016 57.7460023,13.176 57.286,13.176 C56.8566645,13.176 56.4810016,13.0150016 56.159,12.693 C55.8369984,12.3709984 55.676,11.9953355 55.676,11.566 Z M59.586,7.61 C59.586,7.18066452 59.7469984,6.80500161 60.069,6.483 C60.3910016,6.16099839 60.7666645,6 61.196,6 C61.6560023,6 62.0393318,6.16099839 62.346,6.483 C62.6526682,6.80500161 62.806,7.18066452 62.806,7.61 C62.806,8.0700023 62.6526682,8.46099839 62.346,8.783 C62.0393318,9.10500161 61.6560023,9.266 61.196,9.266 C60.7666645,9.266 60.3910016,9.10500161 60.069,8.783 C59.7469984,8.46099839 59.586,8.0700023 59.586,7.61 Z M63.496,7.61 C63.496,7.18066452 63.6569984,6.80500161 63.979,6.483 C64.3010016,6.16099839 64.6766645,6 65.106,6 C65.5660023,6 65.9493318,6.16099839 66.256,6.483 C66.5626682,6.80500161 66.716,7.18066452 66.716,7.61 C66.716,8.0700023 66.5626682,8.46099839 66.256,8.783 C65.9493318,9.10500161 65.5660023,9.266 65.106,9.266 C64.6766645,9.266 64.3010016,9.10500161 63.979,8.783 C63.6569984,8.46099839 63.496,8.0700023 63.496,7.61 Z M59.586,11.566 C59.586,11.1059977 59.7469984,10.7150016 60.069,10.393 C60.3910016,10.0709984 60.7666645,9.91 61.196,9.91 C61.6560023,9.91 62.0393318,10.0709984 62.346,10.393 C62.6526682,10.7150016 62.806,11.1059977 62.806,11.566 C62.806,11.9953355 62.6526682,12.3709984 62.346,12.693 C62.0393318,13.0150016 61.6560023,13.176 61.196,13.176 C60.7666645,13.176 60.3910016,13.0150016 60.069,12.693 C59.7469984,12.3709984 59.586,11.9953355 59.586,11.566 Z M63.496,11.566 C63.496,11.1059977 63.6569984,10.7150016 63.979,10.393 C64.3010016,10.0709984 64.6766645,9.91 65.106,9.91 C65.5660023,9.91 65.9493318,10.0709984 66.256,10.393 C66.5626682,10.7150016 66.716,11.1059977 66.716,11.566 C66.716,11.9953355 66.5626682,12.3709984 66.256,12.693 C65.9493318,13.0150016 65.5660023,13.176 65.106,13.176 C64.6766645,13.176 64.3010016,13.0150016 63.979,12.693 C63.6569984,12.3709984 63.496,11.9953355 63.496,11.566 Z M67.406,7.61 C67.406,7.18066452 67.5669984,6.80500161 67.889,6.483 C68.2110016,6.16099839 68.5866645,6 69.016,6 C69.4760023,6 69.8593318,6.16099839 70.166,6.483 C70.4726682,6.80500161 70.626,7.18066452 70.626,7.61 C70.626,8.0700023 70.4726682,8.46099839 70.166,8.783 C69.8593318,9.10500161 69.4760023,9.266 69.016,9.266 C68.5866645,9.266 68.2110016,9.10500161 67.889,8.783 C67.5669984,8.46099839 67.406,8.0700023 67.406,7.61 Z M71.316,7.61 C71.316,7.18066452 71.4769984,6.80500161 71.799,6.483 C72.1210016,6.16099839 72.4966645,6 72.926,6 C73.3860023,6 73.7769984,6.16099839 74.099,6.483 C74.4210016,6.80500161 74.582,7.18066452 74.582,7.61 C74.582,8.0700023 74.4210016,8.46099839 74.099,8.783 C73.7769984,9.10500161 73.3860023,9.266 72.926,9.266 C72.4966645,9.266 72.1210016,9.10500161 71.799,8.783 C71.4769984,8.46099839 71.316,8.0700023 71.316,7.61 Z M67.406,11.566 C67.406,11.1059977 67.5669984,10.7150016 67.889,10.393 C68.2110016,10.0709984 68.5866645,9.91 69.016,9.91 C69.4760023,9.91 69.8593318,10.0709984 70.166,10.393 C70.4726682,10.7150016 70.626,11.1059977 70.626,11.566 C70.626,11.9953355 70.4726682,12.3709984 70.166,12.693 C69.8593318,13.0150016 69.4760023,13.176 69.016,13.176 C68.5866645,13.176 68.2110016,13.0150016 67.889,12.693 C67.5669984,12.3709984 67.406,11.9953355 67.406,11.566 Z M71.316,11.566 C71.316,11.1059977 71.4769984,10.7150016 71.799,10.393 C72.1210016,10.0709984 72.4966645,9.91 72.926,9.91 C73.3860023,9.91 73.7769984,10.0709984 74.099,10.393 C74.4210016,10.7150016 74.582,11.1059977 74.582,11.566 C74.582,11.9953355 74.4210016,12.3709984 74.099,12.693 C73.7769984,13.0150016 73.3860023,13.176 72.926,13.176 C72.4966645,13.176 72.1210016,13.0150016 71.799,12.693 C71.4769984,12.3709984 71.316,11.9953355 71.316,11.566 Z M51.766,15.476 C51.766,15.0159977 51.9269984,14.6250016 52.249,14.303 C52.5710016,13.9809984 52.9466645,13.82 53.376,13.82 C53.8360023,13.82 54.2193318,13.9809984 54.526,14.303 C54.8326682,14.6250016 54.986,15.0159977 54.986,15.476 C54.986,15.9053355 54.8326682,16.2809984 54.526,16.603 C54.2193318,16.9250016 53.8360023,17.086 53.376,17.086 C52.9466645,17.086 52.5710016,16.9250016 52.249,16.603 C51.9269984,16.2809984 51.766,15.9053355 51.766,15.476 Z M55.676,15.476 C55.676,15.0159977 55.8369984,14.6250016 56.159,14.303 C56.4810016,13.9809984 56.8566645,13.82 57.286,13.82 C57.7460023,13.82 58.1293318,13.9809984 58.436,14.303 C58.7426682,14.6250016 58.896,15.0159977 58.896,15.476 C58.896,15.9053355 58.7426682,16.2809984 58.436,16.603 C58.1293318,16.9250016 57.7460023,17.086 57.286,17.086 C56.8566645,17.086 56.4810016,16.9250016 56.159,16.603 C55.8369984,16.2809984 55.676,15.9053355 55.676,15.476 Z M51.766,19.386 C51.766,18.9259977 51.9269984,18.5350016 52.249,18.213 C52.5710016,17.8909984 52.9466645,17.73 53.376,17.73 C53.8360023,17.73 54.2193318,17.8909984 54.526,18.213 C54.8326682,18.5350016 54.986,18.9259977 54.986,19.386 C54.986,19.8153355 54.8326682,20.1909984 54.526,20.513 C54.2193318,20.8350016 53.8360023,20.996 53.376,20.996 C52.9466645,20.996 52.5710016,20.8350016 52.249,20.513 C51.9269984,20.1909984 51.766,19.8153355 51.766,19.386 Z M55.676,19.386 C55.676,18.9259977 55.8369984,18.5350016 56.159,18.213 C56.4810016,17.8909984 56.8566645,17.73 57.286,17.73 C57.7460023,17.73 58.1293318,17.8909984 58.436,18.213 C58.7426682,18.5350016 58.896,18.9259977 58.896,19.386 C58.896,19.8153355 58.7426682,20.1909984 58.436,20.513 C58.1293318,20.8350016 57.7460023,20.996 57.286,20.996 C56.8566645,20.996 56.4810016,20.8350016 56.159,20.513 C55.8369984,20.1909984 55.676,19.8153355 55.676,19.386 Z M51.766,23.296 C51.766,22.8359977 51.9269984,22.4526682 52.249,22.146 C52.5710016,21.8393318 52.9466645,21.686 53.376,21.686 C53.8360023,21.686 54.2193318,21.8393318 54.526,22.146 C54.8326682,22.4526682 54.986,22.8359977 54.986,23.296 C54.986,23.7253355 54.8326682,24.1009984 54.526,24.423 C54.2193318,24.7450016 53.8360023,24.906 53.376,24.906 C52.9466645,24.906 52.5710016,24.7450016 52.249,24.423 C51.9269984,24.1009984 51.766,23.7253355 51.766,23.296 Z M55.676,23.296 C55.676,22.8359977 55.8369984,22.4526682 56.159,22.146 C56.4810016,21.8393318 56.8566645,21.686 57.286,21.686 C57.7460023,21.686 58.1293318,21.8393318 58.436,22.146 C58.7426682,22.4526682 58.896,22.8359977 58.896,23.296 C58.896,23.7253355 58.7426682,24.1009984 58.436,24.423 C58.1293318,24.7450016 57.7460023,24.906 57.286,24.906 C56.8566645,24.906 56.4810016,24.7450016 56.159,24.423 C55.8369984,24.1009984 55.676,23.7253355 55.676,23.296 Z M51.766,27.206 C51.766,26.7459977 51.9269984,26.3626682 52.249,26.056 C52.5710016,25.7493318 52.9466645,25.596 53.376,25.596 C53.8360023,25.596 54.2193318,25.7493318 54.526,26.056 C54.8326682,26.3626682 54.986,26.7459977 54.986,27.206 C54.986,27.6353355 54.8326682,28.0109984 54.526,28.333 C54.2193318,28.6550016 53.8360023,28.816 53.376,28.816 C52.9466645,28.816 52.5710016,28.6550016 52.249,28.333 C51.9269984,28.0109984 51.766,27.6353355 51.766,27.206 Z M55.676,27.206 C55.676,26.7459977 55.8369984,26.3626682 56.159,26.056 C56.4810016,25.7493318 56.8566645,25.596 57.286,25.596 C57.7460023,25.596 58.1293318,25.7493318 58.436,26.056 C58.7426682,26.3626682 58.896,26.7459977 58.896,27.206 C58.896,27.6353355 58.7426682,28.0109984 58.436,28.333 C58.1293318,28.6550016 57.7460023,28.816 57.286,28.816 C56.8566645,28.816 56.4810016,28.6550016 56.159,28.333 C55.8369984,28.0109984 55.676,27.6353355 55.676,27.206 Z M51.766,31.116 C51.766,30.6559977 51.9269984,30.2726682 52.249,29.966 C52.5710016,29.6593318 52.9466645,29.506 53.376,29.506 C53.8360023,29.506 54.2193318,29.6593318 54.526,29.966 C54.8326682,30.2726682 54.986,30.6559977 54.986,31.116 C54.986,31.5453355 54.8326682,31.9209984 54.526,32.243 C54.2193318,32.5650016 53.8360023,32.726 53.376,32.726 C52.9466645,32.726 52.5710016,32.5650016 52.249,32.243 C51.9269984,31.9209984 51.766,31.5453355 51.766,31.116 Z M55.676,31.116 C55.676,30.6559977 55.8369984,30.2726682 56.159,29.966 C56.4810016,29.6593318 56.8566645,29.506 57.286,29.506 C57.7460023,29.506 58.1293318,29.6593318 58.436,29.966 C58.7426682,30.2726682 58.896,30.6559977 58.896,31.116 C58.896,31.5453355 58.7426682,31.9209984 58.436,32.243 C58.1293318,32.5650016 57.7460023,32.726 57.286,32.726 C56.8566645,32.726 56.4810016,32.5650016 56.159,32.243 C55.8369984,31.9209984 55.676,31.5453355 55.676,31.116 Z M55.676,35.026 C55.676,34.5659977 55.8369984,34.1826682 56.159,33.876 C56.4810016,33.5693318 56.8566645,33.416 57.286,33.416 C57.7460023,33.416 58.1293318,33.5693318 58.436,33.876 C58.7426682,34.1826682 58.896,34.5659977 58.896,35.026 C58.896,35.4553355 58.7426682,35.8309984 58.436,36.153 C58.1293318,36.4750016 57.7460023,36.636 57.286,36.636 C56.8566645,36.636 56.4810016,36.4750016 56.159,36.153 C55.8369984,35.8309984 55.676,35.4553355 55.676,35.026 Z M59.586,31.116 C59.586,30.6559977 59.7469984,30.2726682 60.069,29.966 C60.3910016,29.6593318 60.7666645,29.506 61.196,29.506 C61.6560023,29.506 62.0393318,29.6593318 62.346,29.966 C62.6526682,30.2726682 62.806,30.6559977 62.806,31.116 C62.806,31.5453355 62.6526682,31.9209984 62.346,32.243 C62.0393318,32.5650016 61.6560023,32.726 61.196,32.726 C60.7666645,32.726 60.3910016,32.5650016 60.069,32.243 C59.7469984,31.9209984 59.586,31.5453355 59.586,31.116 Z M63.496,31.116 C63.496,30.6559977 63.6569984,30.2726682 63.979,29.966 C64.3010016,29.6593318 64.6766645,29.506 65.106,29.506 C65.5660023,29.506 65.9493318,29.6593318 66.256,29.966 C66.5626682,30.2726682 66.716,30.6559977 66.716,31.116 C66.716,31.5453355 66.5626682,31.9209984 66.256,32.243 C65.9493318,32.5650016 65.5660023,32.726 65.106,32.726 C64.6766645,32.726 64.3010016,32.5650016 63.979,32.243 C63.6569984,31.9209984 63.496,31.5453355 63.496,31.116 Z M59.586,35.026 C59.586,34.5659977 59.7469984,34.1826682 60.069,33.876 C60.3910016,33.5693318 60.7666645,33.416 61.196,33.416 C61.6560023,33.416 62.0393318,33.5693318 62.346,33.876 C62.6526682,34.1826682 62.806,34.5659977 62.806,35.026 C62.806,35.4553355 62.6526682,35.8309984 62.346,36.153 C62.0393318,36.4750016 61.6560023,36.636 61.196,36.636 C60.7666645,36.636 60.3910016,36.4750016 60.069,36.153 C59.7469984,35.8309984 59.586,35.4553355 59.586,35.026 Z M63.496,35.026 C63.496,34.5659977 63.6569984,34.1826682 63.979,33.876 C64.3010016,33.5693318 64.6766645,33.416 65.106,33.416 C65.5660023,33.416 65.9493318,33.5693318 66.256,33.876 C66.5626682,34.1826682 66.716,34.5659977 66.716,35.026 C66.716,35.4553355 66.5626682,35.8309984 66.256,36.153 C65.9493318,36.4750016 65.5660023,36.636 65.106,36.636 C64.6766645,36.636 64.3010016,36.4750016 63.979,36.153 C63.6569984,35.8309984 63.496,35.4553355 63.496,35.026 Z M67.406,31.116 C67.406,30.6559977 67.5669984,30.2726682 67.889,29.966 C68.2110016,29.6593318 68.5866645,29.506 69.016,29.506 C69.4760023,29.506 69.8593318,29.6593318 70.166,29.966 C70.4726682,30.2726682 70.626,30.6559977 70.626,31.116 C70.626,31.5453355 70.4726682,31.9209984 70.166,32.243 C69.8593318,32.5650016 69.4760023,32.726 69.016,32.726 C68.5866645,32.726 68.2110016,32.5650016 67.889,32.243 C67.5669984,31.9209984 67.406,31.5453355 67.406,31.116 Z M71.316,31.116 C71.316,30.6559977 71.4769984,30.2726682 71.799,29.966 C72.1210016,29.6593318 72.4966645,29.506 72.926,29.506 C73.3860023,29.506 73.7769984,29.6593318 74.099,29.966 C74.4210016,30.2726682 74.582,30.6559977 74.582,31.116 C74.582,31.5453355 74.4210016,31.9209984 74.099,32.243 C73.7769984,32.5650016 73.3860023,32.726 72.926,32.726 C72.4966645,32.726 72.1210016,32.5650016 71.799,32.243 C71.4769984,31.9209984 71.316,31.5453355 71.316,31.116 Z M67.406,35.026 C67.406,34.5659977 67.5669984,34.1826682 67.889,33.876 C68.2110016,33.5693318 68.5866645,33.416 69.016,33.416 C69.4760023,33.416 69.8593318,33.5693318 70.166,33.876 C70.4726682,34.1826682 70.626,34.5659977 70.626,35.026 C70.626,35.4553355 70.4726682,35.8309984 70.166,36.153 C69.8593318,36.4750016 69.4760023,36.636 69.016,36.636 C68.5866645,36.636 68.2110016,36.4750016 67.889,36.153 C67.5669984,35.8309984 67.406,35.4553355 67.406,35.026 Z M71.316,35.026 C71.316,34.5659977 71.4769984,34.1826682 71.799,33.876 C72.1210016,33.5693318 72.4966645,33.416 72.926,33.416 C73.3860023,33.416 73.7769984,33.5693318 74.099,33.876 C74.4210016,34.1826682 74.582,34.5659977 74.582,35.026 C74.582,35.4553355 74.4210016,35.8309984 74.099,36.153 C73.7769984,36.4750016 73.3860023,36.636 72.926,36.636 C72.4966645,36.636 72.1210016,36.4750016 71.799,36.153 C71.4769984,35.8309984 71.316,35.4553355 71.316,35.026 Z M78.492,7.61 C78.492,7.18066452 78.6529984,6.80500161 78.975,6.483 C79.2970016,6.16099839 79.6726645,6 80.102,6 C80.5620023,6 80.9453318,6.16099839 81.252,6.483 C81.5586682,6.80500161 81.712,7.18066452 81.712,7.61 C81.712,8.0700023 81.5586682,8.46099839 81.252,8.783 C80.9453318,9.10500161 80.5620023,9.266 80.102,9.266 C79.6726645,9.266 79.2970016,9.10500161 78.975,8.783 C78.6529984,8.46099839 78.492,8.0700023 78.492,7.61 Z M82.402,7.61 C82.402,7.18066452 82.5629984,6.80500161 82.885,6.483 C83.2070016,6.16099839 83.5826645,6 84.012,6 C84.4720023,6 84.8553318,6.16099839 85.162,6.483 C85.4686682,6.80500161 85.622,7.18066452 85.622,7.61 C85.622,8.0700023 85.4686682,8.46099839 85.162,8.783 C84.8553318,9.10500161 84.4720023,9.266 84.012,9.266 C83.5826645,9.266 83.2070016,9.10500161 82.885,8.783 C82.5629984,8.46099839 82.402,8.0700023 82.402,7.61 Z M78.492,11.566 C78.492,11.1059977 78.6529984,10.7150016 78.975,10.393 C79.2970016,10.0709984 79.6726645,9.91 80.102,9.91 C80.5620023,9.91 80.9453318,10.0709984 81.252,10.393 C81.5586682,10.7150016 81.712,11.1059977 81.712,11.566 C81.712,11.9953355 81.5586682,12.3709984 81.252,12.693 C80.9453318,13.0150016 80.5620023,13.176 80.102,13.176 C79.6726645,13.176 79.2970016,13.0150016 78.975,12.693 C78.6529984,12.3709984 78.492,11.9953355 78.492,11.566 Z M82.402,11.566 C82.402,11.1059977 82.5629984,10.7150016 82.885,10.393 C83.2070016,10.0709984 83.5826645,9.91 84.012,9.91 C84.4720023,9.91 84.8553318,10.0709984 85.162,10.393 C85.4686682,10.7150016 85.622,11.1059977 85.622,11.566 C85.622,11.9953355 85.4686682,12.3709984 85.162,12.693 C84.8553318,13.0150016 84.4720023,13.176 84.012,13.176 C83.5826645,13.176 83.2070016,13.0150016 82.885,12.693 C82.5629984,12.3709984 82.402,11.9953355 82.402,11.566 Z M86.312,7.61 C86.312,7.18066452 86.4729984,6.80500161 86.795,6.483 C87.1170016,6.16099839 87.4926645,6 87.922,6 C88.3820023,6 88.7653318,6.16099839 89.072,6.483 C89.3786682,6.80500161 89.532,7.18066452 89.532,7.61 C89.532,8.0700023 89.3786682,8.46099839 89.072,8.783 C88.7653318,9.10500161 88.3820023,9.266 87.922,9.266 C87.4926645,9.266 87.1170016,9.10500161 86.795,8.783 C86.4729984,8.46099839 86.312,8.0700023 86.312,7.61 Z M90.222,7.61 C90.222,7.18066452 90.3829984,6.80500161 90.705,6.483 C91.0270016,6.16099839 91.4026645,6 91.832,6 C92.2920023,6 92.6753318,6.16099839 92.982,6.483 C93.2886682,6.80500161 93.442,7.18066452 93.442,7.61 C93.442,8.0700023 93.2886682,8.46099839 92.982,8.783 C92.6753318,9.10500161 92.2920023,9.266 91.832,9.266 C91.4026645,9.266 91.0270016,9.10500161 90.705,8.783 C90.3829984,8.46099839 90.222,8.0700023 90.222,7.61 Z M86.312,11.566 C86.312,11.1059977 86.4729984,10.7150016 86.795,10.393 C87.1170016,10.0709984 87.4926645,9.91 87.922,9.91 C88.3820023,9.91 88.7653318,10.0709984 89.072,10.393 C89.3786682,10.7150016 89.532,11.1059977 89.532,11.566 C89.532,11.9953355 89.3786682,12.3709984 89.072,12.693 C88.7653318,13.0150016 88.3820023,13.176 87.922,13.176 C87.4926645,13.176 87.1170016,13.0150016 86.795,12.693 C86.4729984,12.3709984 86.312,11.9953355 86.312,11.566 Z M90.222,11.566 C90.222,11.1059977 90.3829984,10.7150016 90.705,10.393 C91.0270016,10.0709984 91.4026645,9.91 91.832,9.91 C92.2920023,9.91 92.6753318,10.0709984 92.982,10.393 C93.2886682,10.7150016 93.442,11.1059977 93.442,11.566 C93.442,11.9953355 93.2886682,12.3709984 92.982,12.693 C92.6753318,13.0150016 92.2920023,13.176 91.832,13.176 C91.4026645,13.176 91.0270016,13.0150016 90.705,12.693 C90.3829984,12.3709984 90.222,11.9953355 90.222,11.566 Z M94.132,7.61 C94.132,7.18066452 94.2929984,6.80500161 94.615,6.483 C94.9370016,6.16099839 95.3126645,6 95.742,6 C96.2020023,6 96.5853318,6.16099839 96.892,6.483 C97.1986682,6.80500161 97.352,7.18066452 97.352,7.61 C97.352,8.0700023 97.1986682,8.46099839 96.892,8.783 C96.5853318,9.10500161 96.2020023,9.266 95.742,9.266 C95.3126645,9.266 94.9370016,9.10500161 94.615,8.783 C94.2929984,8.46099839 94.132,8.0700023 94.132,7.61 Z M98.042,7.61 C98.042,7.18066452 98.2029984,6.80500161 98.525,6.483 C98.8470016,6.16099839 99.2226645,6 99.652,6 C100.112002,6 100.502998,6.16099839 100.825,6.483 C101.147002,6.80500161 101.308,7.18066452 101.308,7.61 C101.308,8.0700023 101.147002,8.46099839 100.825,8.783 C100.502998,9.10500161 100.112002,9.266 99.652,9.266 C99.2226645,9.266 98.8470016,9.10500161 98.525,8.783 C98.2029984,8.46099839 98.042,8.0700023 98.042,7.61 Z M94.132,11.566 C94.132,11.1059977 94.2929984,10.7150016 94.615,10.393 C94.9370016,10.0709984 95.3126645,9.91 95.742,9.91 C96.2020023,9.91 96.5853318,10.0709984 96.892,10.393 C97.1986682,10.7150016 97.352,11.1059977 97.352,11.566 C97.352,11.9953355 97.1986682,12.3709984 96.892,12.693 C96.5853318,13.0150016 96.2020023,13.176 95.742,13.176 C95.3126645,13.176 94.9370016,13.0150016 94.615,12.693 C94.2929984,12.3709984 94.132,11.9953355 94.132,11.566 Z M98.042,11.566 C98.042,11.1059977 98.2029984,10.7150016 98.525,10.393 C98.8470016,10.0709984 99.2226645,9.91 99.652,9.91 C100.112002,9.91 100.502998,10.0709984 100.825,10.393 C101.147002,10.7150016 101.308,11.1059977 101.308,11.566 C101.308,11.9953355 101.147002,12.3709984 100.825,12.693 C100.502998,13.0150016 100.112002,13.176 99.652,13.176 C99.2226645,13.176 98.8470016,13.0150016 98.525,12.693 C98.2029984,12.3709984 98.042,11.9953355 98.042,11.566 Z M78.492,15.476 C78.492,15.0159977 78.6529984,14.6250016 78.975,14.303 C79.2970016,13.9809984 79.6726645,13.82 80.102,13.82 C80.5620023,13.82 80.9453318,13.9809984 81.252,14.303 C81.5586682,14.6250016 81.712,15.0159977 81.712,15.476 C81.712,15.9053355 81.5586682,16.2809984 81.252,16.603 C80.9453318,16.9250016 80.5620023,17.086 80.102,17.086 C79.6726645,17.086 79.2970016,16.9250016 78.975,16.603 C78.6529984,16.2809984 78.492,15.9053355 78.492,15.476 Z M82.402,15.476 C82.402,15.0159977 82.5629984,14.6250016 82.885,14.303 C83.2070016,13.9809984 83.5826645,13.82 84.012,13.82 C84.4720023,13.82 84.8553318,13.9809984 85.162,14.303 C85.4686682,14.6250016 85.622,15.0159977 85.622,15.476 C85.622,15.9053355 85.4686682,16.2809984 85.162,16.603 C84.8553318,16.9250016 84.4720023,17.086 84.012,17.086 C83.5826645,17.086 83.2070016,16.9250016 82.885,16.603 C82.5629984,16.2809984 82.402,15.9053355 82.402,15.476 Z M78.492,19.386 C78.492,18.9259977 78.6529984,18.5350016 78.975,18.213 C79.2970016,17.8909984 79.6726645,17.73 80.102,17.73 C80.5620023,17.73 80.9453318,17.8909984 81.252,18.213 C81.5586682,18.5350016 81.712,18.9259977 81.712,19.386 C81.712,19.8153355 81.5586682,20.1909984 81.252,20.513 C80.9453318,20.8350016 80.5620023,20.996 80.102,20.996 C79.6726645,20.996 79.2970016,20.8350016 78.975,20.513 C78.6529984,20.1909984 78.492,19.8153355 78.492,19.386 Z M82.402,19.386 C82.402,18.9259977 82.5629984,18.5350016 82.885,18.213 C83.2070016,17.8909984 83.5826645,17.73 84.012,17.73 C84.4720023,17.73 84.8553318,17.8909984 85.162,18.213 C85.4686682,18.5350016 85.622,18.9259977 85.622,19.386 C85.622,19.8153355 85.4686682,20.1909984 85.162,20.513 C84.8553318,20.8350016 84.4720023,20.996 84.012,20.996 C83.5826645,20.996 83.2070016,20.8350016 82.885,20.513 C82.5629984,20.1909984 82.402,19.8153355 82.402,19.386 Z M86.312,19.386 C86.312,18.9259977 86.4729984,18.5350016 86.795,18.213 C87.1170016,17.8909984 87.4926645,17.73 87.922,17.73 C88.3820023,17.73 88.7653318,17.8909984 89.072,18.213 C89.3786682,18.5350016 89.532,18.9259977 89.532,19.386 C89.532,19.8153355 89.3786682,20.1909984 89.072,20.513 C88.7653318,20.8350016 88.3820023,20.996 87.922,20.996 C87.4926645,20.996 87.1170016,20.8350016 86.795,20.513 C86.4729984,20.1909984 86.312,19.8153355 86.312,19.386 Z M90.222,19.386 C90.222,18.9259977 90.3829984,18.5350016 90.705,18.213 C91.0270016,17.8909984 91.4026645,17.73 91.832,17.73 C92.2920023,17.73 92.6753318,17.8909984 92.982,18.213 C93.2886682,18.5350016 93.442,18.9259977 93.442,19.386 C93.442,19.8153355 93.2886682,20.1909984 92.982,20.513 C92.6753318,20.8350016 92.2920023,20.996 91.832,20.996 C91.4026645,20.996 91.0270016,20.8350016 90.705,20.513 C90.3829984,20.1909984 90.222,19.8153355 90.222,19.386 Z M94.132,19.386 C94.132,18.9259977 94.2929984,18.5350016 94.615,18.213 C94.9370016,17.8909984 95.3126645,17.73 95.742,17.73 C96.2020023,17.73 96.5853318,17.8909984 96.892,18.213 C97.1986682,18.5350016 97.352,18.9259977 97.352,19.386 C97.352,19.8153355 97.1986682,20.1909984 96.892,20.513 C96.5853318,20.8350016 96.2020023,20.996 95.742,20.996 C95.3126645,20.996 94.9370016,20.8350016 94.615,20.513 C94.2929984,20.1909984 94.132,19.8153355 94.132,19.386 Z M98.042,19.386 C98.042,18.9259977 98.2029984,18.5350016 98.525,18.213 C98.8470016,17.8909984 99.2226645,17.73 99.652,17.73 C100.112002,17.73 100.502998,17.8909984 100.825,18.213 C101.147002,18.5350016 101.308,18.9259977 101.308,19.386 C101.308,19.8153355 101.147002,20.1909984 100.825,20.513 C100.502998,20.8350016 100.112002,20.996 99.652,20.996 C99.2226645,20.996 98.8470016,20.8350016 98.525,20.513 C98.2029984,20.1909984 98.042,19.8153355 98.042,19.386 Z M78.492,23.296 C78.492,22.8359977 78.6529984,22.4526682 78.975,22.146 C79.2970016,21.8393318 79.6726645,21.686 80.102,21.686 C80.5620023,21.686 80.9453318,21.8393318 81.252,22.146 C81.5586682,22.4526682 81.712,22.8359977 81.712,23.296 C81.712,23.7253355 81.5586682,24.1009984 81.252,24.423 C80.9453318,24.7450016 80.5620023,24.906 80.102,24.906 C79.6726645,24.906 79.2970016,24.7450016 78.975,24.423 C78.6529984,24.1009984 78.492,23.7253355 78.492,23.296 Z M82.402,23.296 C82.402,22.8359977 82.5629984,22.4526682 82.885,22.146 C83.2070016,21.8393318 83.5826645,21.686 84.012,21.686 C84.4720023,21.686 84.8553318,21.8393318 85.162,22.146 C85.4686682,22.4526682 85.622,22.8359977 85.622,23.296 C85.622,23.7253355 85.4686682,24.1009984 85.162,24.423 C84.8553318,24.7450016 84.4720023,24.906 84.012,24.906 C83.5826645,24.906 83.2070016,24.7450016 82.885,24.423 C82.5629984,24.1009984 82.402,23.7253355 82.402,23.296 Z M78.492,27.206 C78.492,26.7459977 78.6529984,26.3626682 78.975,26.056 C79.2970016,25.7493318 79.6726645,25.596 80.102,25.596 C80.5620023,25.596 80.9453318,25.7493318 81.252,26.056 C81.5586682,26.3626682 81.712,26.7459977 81.712,27.206 C81.712,27.6353355 81.5586682,28.0109984 81.252,28.333 C80.9453318,28.6550016 80.5620023,28.816 80.102,28.816 C79.6726645,28.816 79.2970016,28.6550016 78.975,28.333 C78.6529984,28.0109984 78.492,27.6353355 78.492,27.206 Z M82.402,27.206 C82.402,26.7459977 82.5629984,26.3626682 82.885,26.056 C83.2070016,25.7493318 83.5826645,25.596 84.012,25.596 C84.4720023,25.596 84.8553318,25.7493318 85.162,26.056 C85.4686682,26.3626682 85.622,26.7459977 85.622,27.206 C85.622,27.6353355 85.4686682,28.0109984 85.162,28.333 C84.8553318,28.6550016 84.4720023,28.816 84.012,28.816 C83.5826645,28.816 83.2070016,28.6550016 82.885,28.333 C82.5629984,28.0109984 82.402,27.6353355 82.402,27.206 Z M86.312,23.296 C86.312,22.8359977 86.4729984,22.4526682 86.795,22.146 C87.1170016,21.8393318 87.4926645,21.686 87.922,21.686 C88.3820023,21.686 88.7653318,21.8393318 89.072,22.146 C89.3786682,22.4526682 89.532,22.8359977 89.532,23.296 C89.532,23.7253355 89.3786682,24.1009984 89.072,24.423 C88.7653318,24.7450016 88.3820023,24.906 87.922,24.906 C87.4926645,24.906 87.1170016,24.7450016 86.795,24.423 C86.4729984,24.1009984 86.312,23.7253355 86.312,23.296 Z M90.222,23.296 C90.222,22.8359977 90.3829984,22.4526682 90.705,22.146 C91.0270016,21.8393318 91.4026645,21.686 91.832,21.686 C92.2920023,21.686 92.6753318,21.8393318 92.982,22.146 C93.2886682,22.4526682 93.442,22.8359977 93.442,23.296 C93.442,23.7253355 93.2886682,24.1009984 92.982,24.423 C92.6753318,24.7450016 92.2920023,24.906 91.832,24.906 C91.4026645,24.906 91.0270016,24.7450016 90.705,24.423 C90.3829984,24.1009984 90.222,23.7253355 90.222,23.296 Z M94.132,23.296 C94.132,22.8359977 94.2929984,22.4526682 94.615,22.146 C94.9370016,21.8393318 95.3126645,21.686 95.742,21.686 C96.2020023,21.686 96.5853318,21.8393318 96.892,22.146 C97.1986682,22.4526682 97.352,22.8359977 97.352,23.296 C97.352,23.7253355 97.1986682,24.1009984 96.892,24.423 C96.5853318,24.7450016 96.2020023,24.906 95.742,24.906 C95.3126645,24.906 94.9370016,24.7450016 94.615,24.423 C94.2929984,24.1009984 94.132,23.7253355 94.132,23.296 Z M98.042,23.296 C98.042,22.8359977 98.2029984,22.4526682 98.525,22.146 C98.8470016,21.8393318 99.2226645,21.686 99.652,21.686 C100.112002,21.686 100.502998,21.8393318 100.825,22.146 C101.147002,22.4526682 101.308,22.8359977 101.308,23.296 C101.308,23.7253355 101.147002,24.1009984 100.825,24.423 C100.502998,24.7450016 100.112002,24.906 99.652,24.906 C99.2226645,24.906 98.8470016,24.7450016 98.525,24.423 C98.2029984,24.1009984 98.042,23.7253355 98.042,23.296 Z M78.492,31.116 C78.492,30.6559977 78.6529984,30.2726682 78.975,29.966 C79.2970016,29.6593318 79.6726645,29.506 80.102,29.506 C80.5620023,29.506 80.9453318,29.6593318 81.252,29.966 C81.5586682,30.2726682 81.712,30.6559977 81.712,31.116 C81.712,31.5453355 81.5586682,31.9209984 81.252,32.243 C80.9453318,32.5650016 80.5620023,32.726 80.102,32.726 C79.6726645,32.726 79.2970016,32.5650016 78.975,32.243 C78.6529984,31.9209984 78.492,31.5453355 78.492,31.116 Z M82.402,31.116 C82.402,30.6559977 82.5629984,30.2726682 82.885,29.966 C83.2070016,29.6593318 83.5826645,29.506 84.012,29.506 C84.4720023,29.506 84.8553318,29.6593318 85.162,29.966 C85.4686682,30.2726682 85.622,30.6559977 85.622,31.116 C85.622,31.5453355 85.4686682,31.9209984 85.162,32.243 C84.8553318,32.5650016 84.4720023,32.726 84.012,32.726 C83.5826645,32.726 83.2070016,32.5650016 82.885,32.243 C82.5629984,31.9209984 82.402,31.5453355 82.402,31.116 Z M78.492,35.026 C78.492,34.5659977 78.6529984,34.1826682 78.975,33.876 C79.2970016,33.5693318 79.6726645,33.416 80.102,33.416 C80.5620023,33.416 80.9453318,33.5693318 81.252,33.876 C81.5586682,34.1826682 81.712,34.5659977 81.712,35.026 C81.712,35.4553355 81.5586682,35.8309984 81.252,36.153 C80.9453318,36.4750016 80.5620023,36.636 80.102,36.636 C79.6726645,36.636 79.2970016,36.4750016 78.975,36.153 C78.6529984,35.8309984 78.492,35.4553355 78.492,35.026 Z M82.402,35.026 C82.402,34.5659977 82.5629984,34.1826682 82.885,33.876 C83.2070016,33.5693318 83.5826645,33.416 84.012,33.416 C84.4720023,33.416 84.8553318,33.5693318 85.162,33.876 C85.4686682,34.1826682 85.622,34.5659977 85.622,35.026 C85.622,35.4553355 85.4686682,35.8309984 85.162,36.153 C84.8553318,36.4750016 84.4720023,36.636 84.012,36.636 C83.5826645,36.636 83.2070016,36.4750016 82.885,36.153 C82.5629984,35.8309984 82.402,35.4553355 82.402,35.026 Z M86.312,31.116 C86.312,30.6559977 86.4729984,30.2726682 86.795,29.966 C87.1170016,29.6593318 87.4926645,29.506 87.922,29.506 C88.3820023,29.506 88.7653318,29.6593318 89.072,29.966 C89.3786682,30.2726682 89.532,30.6559977 89.532,31.116 C89.532,31.5453355 89.3786682,31.9209984 89.072,32.243 C88.7653318,32.5650016 88.3820023,32.726 87.922,32.726 C87.4926645,32.726 87.1170016,32.5650016 86.795,32.243 C86.4729984,31.9209984 86.312,31.5453355 86.312,31.116 Z M90.222,31.116 C90.222,30.6559977 90.3829984,30.2726682 90.705,29.966 C91.0270016,29.6593318 91.4026645,29.506 91.832,29.506 C92.2920023,29.506 92.6753318,29.6593318 92.982,29.966 C93.2886682,30.2726682 93.442,30.6559977 93.442,31.116 C93.442,31.5453355 93.2886682,31.9209984 92.982,32.243 C92.6753318,32.5650016 92.2920023,32.726 91.832,32.726 C91.4026645,32.726 91.0270016,32.5650016 90.705,32.243 C90.3829984,31.9209984 90.222,31.5453355 90.222,31.116 Z M86.312,35.026 C86.312,34.5659977 86.4729984,34.1826682 86.795,33.876 C87.1170016,33.5693318 87.4926645,33.416 87.922,33.416 C88.3820023,33.416 88.7653318,33.5693318 89.072,33.876 C89.3786682,34.1826682 89.532,34.5659977 89.532,35.026 C89.532,35.4553355 89.3786682,35.8309984 89.072,36.153 C88.7653318,36.4750016 88.3820023,36.636 87.922,36.636 C87.4926645,36.636 87.1170016,36.4750016 86.795,36.153 C86.4729984,35.8309984 86.312,35.4553355 86.312,35.026 Z M90.222,35.026 C90.222,34.5659977 90.3829984,34.1826682 90.705,33.876 C91.0270016,33.5693318 91.4026645,33.416 91.832,33.416 C92.2920023,33.416 92.6753318,33.5693318 92.982,33.876 C93.2886682,34.1826682 93.442,34.5659977 93.442,35.026 C93.442,35.4553355 93.2886682,35.8309984 92.982,36.153 C92.6753318,36.4750016 92.2920023,36.636 91.832,36.636 C91.4026645,36.636 91.0270016,36.4750016 90.705,36.153 C90.3829984,35.8309984 90.222,35.4553355 90.222,35.026 Z M94.132,31.116 C94.132,30.6559977 94.2929984,30.2726682 94.615,29.966 C94.9370016,29.6593318 95.3126645,29.506 95.742,29.506 C96.2020023,29.506 96.5853318,29.6593318 96.892,29.966 C97.1986682,30.2726682 97.352,30.6559977 97.352,31.116 C97.352,31.5453355 97.1986682,31.9209984 96.892,32.243 C96.5853318,32.5650016 96.2020023,32.726 95.742,32.726 C95.3126645,32.726 94.9370016,32.5650016 94.615,32.243 C94.2929984,31.9209984 94.132,31.5453355 94.132,31.116 Z M98.042,31.116 C98.042,30.6559977 98.2029984,30.2726682 98.525,29.966 C98.8470016,29.6593318 99.2226645,29.506 99.652,29.506 C100.112002,29.506 100.502998,29.6593318 100.825,29.966 C101.147002,30.2726682 101.308,30.6559977 101.308,31.116 C101.308,31.5453355 101.147002,31.9209984 100.825,32.243 C100.502998,32.5650016 100.112002,32.726 99.652,32.726 C99.2226645,32.726 98.8470016,32.5650016 98.525,32.243 C98.2029984,31.9209984 98.042,31.5453355 98.042,31.116 Z M94.132,35.026 C94.132,34.5659977 94.2929984,34.1826682 94.615,33.876 C94.9370016,33.5693318 95.3126645,33.416 95.742,33.416 C96.2020023,33.416 96.5853318,33.5693318 96.892,33.876 C97.1986682,34.1826682 97.352,34.5659977 97.352,35.026 C97.352,35.4553355 97.1986682,35.8309984 96.892,36.153 C96.5853318,36.4750016 96.2020023,36.636 95.742,36.636 C95.3126645,36.636 94.9370016,36.4750016 94.615,36.153 C94.2929984,35.8309984 94.132,35.4553355 94.132,35.026 Z M98.042,35.026 C98.042,34.5659977 98.2029984,34.1826682 98.525,33.876 C98.8470016,33.5693318 99.2226645,33.416 99.652,33.416 C100.112002,33.416 100.502998,33.5693318 100.825,33.876 C101.147002,34.1826682 101.308,34.5659977 101.308,35.026 C101.308,35.4553355 101.147002,35.8309984 100.825,36.153 C100.502998,36.4750016 100.112002,36.636 99.652,36.636 C99.2226645,36.636 98.8470016,36.4750016 98.525,36.153 C98.2029984,35.8309984 98.042,35.4553355 98.042,35.026 Z" id="path-1"></path>
        <filter x="-11.5%" y="-32.6%" width="122.9%" height="165.3%" filterUnits="objectBoundingBox" id="filter-2">
            <feOffset dx="0" dy="0" in="SourceAlpha" result="shadowOffsetOuter1"></feOffset>
            <feGaussianBlur stdDeviation="2" in="shadowOffsetOuter1" result="shadowBlurOuter1"></feGaussianBlur>
            <feColorMatrix values="0 0 0 0 0   0 0 0 0 0   0 0 0 0 0  0 0 0 0.5 0" type="matrix" in="shadowBlurOuter1" result="shadowMatrixOuter1"></feColorMatrix>
            <feOffset dx="0" dy="0" in="SourceAlpha" result="shadowOffsetOuter2"></feOffset>
            <feGaussianBlur stdDeviation="2" in="shadowOffsetOuter2" result="shadowBlurOuter2"></feGaussianBlur>
            <feColorMatrix values="0 0 0 0 0.709408967   0 0 0 0 0   0 0 0 0 1  0 0 0 1 0" type="matrix" in="shadowBlurOuter2" result="shadowMatrixOuter2"></feColorMatrix>
            <feMerge>
                <feMergeNode in="shadowMatrixOuter1"></feMergeNode>
                <feMergeNode in="shadowMatrixOuter2"></feMergeNode>
            </feMerge>
        </filter>
        <filter x="-9.7%" y="-27.7%" width="119.5%" height="155.5%" filterUnits="objectBoundingBox" id="filter-3">
            <feGaussianBlur stdDeviation="0.5" in="SourceAlpha" result="shadowBlurInner1"></feGaussianBlur>
            <feOffset dx="0" dy="0" in="shadowBlurInner1" result="shadowOffsetInner1"></feOffset>
            <feComposite in="shadowOffsetInner1" in2="SourceAlpha" operator="arithmetic" k2="-1" k3="1" result="shadowInnerInner1"></feComposite>
            <feColorMatrix values="0 0 0 0 0.980476121   0 0 0 0 0.649522569   0 0 0 0 1  0 0 0 1 0" type="matrix" in="shadowInnerInner1"></feColorMatrix>
        </filter>
    </defs>
    <g id="Symbols" stroke="none" stroke-width="1" fill="none" fill-rule="evenodd">
        <g id="img_dice">
            <g id="DICE">
                <g>
                    <use fill="black" fill-opacity="1" filter="url(#filter-2)" xlink:href="#path-1"></use>
                    <use fill="#7749FF" fill-rule="evenodd" xlink:href="#path-1"></use>
                    <use fill="black" fill-opacity="1" filter="url(#filter-3)" xlink:href="#path-1"></use>
                </g>
            </g>
        </g>
    </g>
</svg>