<?xml version="1.0" encoding="utf-8"?>
<!-- Generator: Adobe Illustrator 22.1.0, SVG Export Plug-In . SVG Version: 6.00 Build 0)  -->
<svg version="1.1" id="图层_1" xmlns="http://www.w3.org/2000/svg" xmlns:xlink="http://www.w3.org/1999/xlink" x="0px" y="0px"
	 viewBox="0 0 130 187" style="enable-background:new 0 0 130 187;" xml:space="preserve">
<style type="text/css">
	.st0{fill:#5C4F5F;}
	.st1{fill:#776E79;}
</style>
<g id="Symbols">
	<g id="img_no_00">
		<g id="img_no_0_normal">
			<path id="Combined-Shape" class="st0" d="M0,6l21,20v46L0,92V6z M109,26l21-20v86l-21-20V26z M8,0h114l-20,21H28L8,0z M0,96
				l21,20v46L0,182V96z M109,116l21-20v86l-21-20V116z M8,187l20-21h74l20,21H8z"/>
			<path id="Rectangle-11" class="st1" d="M2,10.7v76.7l17-16.2V26.9L2,10.7z M0,6l21,20v46L0,92V6z"/>
			<path id="Rectangle-11_1_" class="st1" d="M111,26.9v44.3l17,16.2V10.7L111,26.9z M109,26l21-20v86l-21-20V26z"/>
			<path id="Rectangle-12" class="st1" d="M12.7,2l16.2,17h72.3l16.2-17H12.7z M8,0h114l-20,21H28L8,0z"/>
			<path id="Rectangle-11_2_" class="st1" d="M2,177.3l17-16.2v-44.3L2,100.7V177.3z M0,96l21,20v46L0,182V96z"/>
			<path id="Rectangle-11_3_" class="st1" d="M111,116.9v44.3l17,16.2v-76.7L111,116.9z M109,116l21-20v86l-21-20V116z"/>
			<path id="Rectangle-12_1_" class="st1" d="M28.9,168h72.3l16.2,17H12.7L28.9,168z M8,187h114l-20-21H28L8,187z"/>
		</g>
	</g>
</g>
</svg>
