<?xml version="1.0" encoding="UTF-8"?>
<svg width="140px" height="24px" viewBox="0 0 140 24" version="1.1" xmlns="http://www.w3.org/2000/svg" xmlns:xlink="http://www.w3.org/1999/xlink">
    <!-- Generator: Sketch 50.2 (55047) - http://www.bohemiancoding.com/sketch -->
    <title>img_bar_left</title>
    <desc>Created with Sketch.</desc>
    <defs></defs>
    <g id="Symbols" stroke="none" stroke-width="1" fill="none" fill-rule="evenodd">
        <g id="img_bar_left">
            <g id="Combined-Shape">
                <path d="M137,0 L137,3 L140,3 L140,21 L137,21 L137,24 L3,24 L3,21 L0,21 L0,3 L3,3 L3,0 L137,0 Z" fill="#6D2F0C"></path>
                <path d="M136,1 L4,1 L4,4 L1,4 L1,20 L4,20 L4,23 L136,23 L136,20 L139,20 L139,4 L136,4 L136,1 Z M137,0 L137,3 L140,3 L140,21 L137,21 L137,24 L3,24 L3,21 L0,21 L0,3 L3,3 L3,0 L137,0 Z" fill="#885715" fill-rule="nonzero"></path>
            </g>
        </g>
    </g>
</svg>