<?xml version="1.0" encoding="UTF-8"?>
<svg width="130px" height="187px" viewBox="0 0 130 187" version="1.1" xmlns="http://www.w3.org/2000/svg" xmlns:xlink="http://www.w3.org/1999/xlink">
    <!-- Generator: Sketch 50.2 (55047) - http://www.bohemiancoding.com/sketch -->
    <title>img_no_normal</title>
    <desc>Created with Sketch.</desc>
    <defs></defs>
    <g id="Symbols" stroke="none" stroke-width="1" fill="none" fill-rule="evenodd">
        <g id="img_no_normal" fill="#3A1F40">
            <g>
                <polygon id="Rectangle-11" points="0 6 21 26 21 72 0 92"></polygon>
                <polygon id="Rectangle-11" points="109 26 130 6 130 92 109 72"></polygon>
                <polygon id="Rectangle-12" points="8 0 122 0 102 21 28 21"></polygon>
                <polygon id="Rectangle-11" points="0 96 21 116 21 162 0 182"></polygon>
                <polygon id="Rectangle-11" points="109 116 130 96 130 182 109 162"></polygon>
                <polygon id="Rectangle-12" transform="translate(65.000000, 176.500000) scale(1, -1) translate(-65.000000, -176.500000) " points="8 166 122 166 102 187 28 187"></polygon>
                <polygon id="Rectangle-12" points="10 93 20.0332031 83 111 83 122 93 111 104 20 104"></polygon>
            </g>
        </g>
    </g>
</svg>