<?xml version="1.0" encoding="utf-8"?>
<!-- Generator: Adobe Illustrator 22.1.0, SVG Export Plug-In . SVG Version: 6.00 Build 0)  -->
<svg version="1.1" id="图层_1" xmlns="http://www.w3.org/2000/svg" xmlns:xlink="http://www.w3.org/1999/xlink" x="0px" y="0px"
	 viewBox="0 0 24 24" style="enable-background:new 0 0 24 24;" xml:space="preserve">
<style type="text/css">
	.st0{fill:#FFFFFF;}
</style>
<g id="icon_home_money">
	<g id="Combined-Shape">
		<path class="st0" d="M11.3,17.3v0.6c0,0.4,0.3,0.7,0.7,0.7s0.7-0.3,0.7-0.7v-0.6c2-0.3,3.1-1.5,3.1-3.2c0-1.6-0.9-2.5-3-2.9
			l-1.3-0.3c-1.2-0.3-1.7-0.6-1.7-1.3c0-0.8,0.7-1.3,1.8-1.3c0.1,0,0.1,0,0.2,0c0,0,0,0,0,0c0.8,0.1,1.4,0.4,1.6,1
			c0.1,0.2,0.3,0.4,0.6,0.4l1.1,0c0,0,0,0,0.1,0c0.2,0,0.4-0.2,0.3-0.4c-0.2-1.4-1.3-2.3-2.9-2.6V6.1c0-0.4-0.3-0.7-0.7-0.7
			s-0.7,0.3-0.7,0.7v0.5C9.2,6.8,7.8,8,7.8,9.8c0,1.5,0.9,2.5,2.8,2.9L12,13c1.2,0.3,1.7,0.7,1.7,1.3c0,0.8-0.8,1.3-1.9,1.3
			c-0.9,0-1.7-0.4-2-1c-0.1-0.3-0.4-0.4-0.7-0.4l-1,0v0c0,0-0.1,0-0.1,0c-0.2,0-0.4,0.3-0.3,0.5C7.9,16.2,9.2,17.2,11.3,17.3z
			 M12,23C5.9,23,1,18.1,1,12S5.9,1,12,1s11,4.9,11,11S18.1,23,12,23z"/>
	</g>
</g>
</svg>
