<?xml version="1.0" encoding="utf-8"?>
<!-- Generator: Adobe Illustrator 22.1.0, SVG Export Plug-In . SVG Version: 6.00 Build 0)  -->
<svg version="1.1" id="图层_1" xmlns="http://www.w3.org/2000/svg" xmlns:xlink="http://www.w3.org/1999/xlink" x="0px" y="0px"
	 viewBox="0 0 24 24" style="enable-background:new 0 0 24 24;" xml:space="preserve">
<style type="text/css">
	.st0{fill:#FFFFFF;}
	.st1{fill:#560FC1;}
</style>
<g id="icon_home_eos">
	<g transform="translate(1.000000, 1.000000)">
		<circle id="Oval-21" class="st0" cx="11" cy="11" r="11"/>
		<path id="Fill-628" class="st1" d="M10.6,19.7l-6.2-3.3c-0.3-0.1-0.4-0.5-0.4-0.8l2-7.9c0-0.1,0.1-0.2,0.1-0.3l4.2-5
			c0.1-0.2,0.4-0.3,0.6-0.3c0.2,0,0.4,0.1,0.6,0.3l4.2,5c0.1,0.1,0.1,0.2,0.1,0.3l2,7.9c0.1,0.3-0.1,0.6-0.4,0.8l-6.2,3.3
			c0,0,0,0-0.1,0c0,0,0,0-0.1,0c-0.1,0-0.1,0-0.1,0c-0.1,0-0.1,0-0.1,0c-0.1,0-0.1,0-0.1,0c0,0,0,0,0,0c0,0,0,0-0.1,0
			C10.7,19.7,10.7,19.7,10.6,19.7C10.7,19.7,10.7,19.7,10.6,19.7z M12.3,17.5l3.8-2l-2-3L12.3,17.5z M9.7,17.5l-1.9-5l-2,3L9.7,17.5
			z M8.8,11L11,17l2.2-5.9L11,7.7L8.8,11z M10.3,6.1V5L7.7,8.1l0.5,1.3L10.3,6.1z M11.7,6.1l2.1,3.2l0.5-1.3L11.7,5V6.1z"/>
	</g>
</g>
</svg>
