<?xml version="1.0" encoding="utf-8"?>
<!-- Generator: Adobe Illustrator 22.1.0, SVG Export Plug-In . SVG Version: 6.00 Build 0)  -->
<svg version="1.1" id="图层_1" xmlns="http://www.w3.org/2000/svg" xmlns:xlink="http://www.w3.org/1999/xlink" x="0px" y="0px"
	 viewBox="0 0 16 16" style="enable-background:new 0 0 16 16;" xml:space="preserve">
<style type="text/css">
	.st0{opacity:0.6;}
	.st1{fill:#FFFFFF;}
</style>
<g id="icon_home_question" class="st0">
	<g id="Combined-Shape">
		<path class="st1" d="M8,15c-3.9,0-7-3.1-7-7s3.1-7,7-7s7,3.1,7,7S11.9,15,8,15z M8,3.7c-0.9,0-1.6,0.3-2.1,0.8
			C5.4,4.9,5.2,5.6,5.2,6.5h1.4c0-0.5,0.1-0.9,0.3-1.2C7.1,5,7.4,4.9,8,4.9c0.4,0,0.7,0.1,1,0.3c0.2,0.2,0.3,0.5,0.3,0.9
			c0,0.3-0.1,0.6-0.3,0.9L8.8,7.1C8,7.8,7.5,8.3,7.4,8.7C7.2,9,7.1,9.4,7.1,9.8V10h1.4V9.8c0-0.3,0.1-0.5,0.2-0.8
			C8.8,8.8,9,8.6,9.2,8.5c0.6-0.5,0.9-0.8,1-0.9c0.3-0.4,0.4-0.9,0.4-1.5c0-0.7-0.2-1.3-0.7-1.7C9.5,3.9,8.8,3.7,8,3.7z M7.8,10.6
			c-0.3,0-0.5,0.1-0.7,0.3C7,11,6.9,11.2,6.9,11.5S7,12,7.2,12.1c0.2,0.2,0.4,0.3,0.7,0.3c0.3,0,0.5-0.1,0.7-0.3
			c0.2-0.2,0.3-0.4,0.3-0.7S8.7,11,8.5,10.9C8.3,10.7,8.1,10.6,7.8,10.6z"/>
	</g>
</g>
</svg>
