<?xml version="1.0" encoding="utf-8"?>
<!-- Generator: Adobe Illustrator 22.1.0, SVG Export Plug-In . SVG Version: 6.00 Build 0)  -->
<svg version="1.1" id="图层_1" xmlns="http://www.w3.org/2000/svg" xmlns:xlink="http://www.w3.org/1999/xlink" x="0px" y="0px"
	 viewBox="0 0 24 24" style="enable-background:new 0 0 24 24;" xml:space="preserve">
<style type="text/css">
	.st0{fill:#FFFFFF;}
</style>
<g id="icon_home_buy">
	<g id="Combined-Shape">
		<path class="st0" d="M12.9,11.5v-5c0-0.5-0.4-0.9-0.9-0.9S11.1,6,11.1,6.5v5l-1-1c-0.4-0.4-0.9-0.4-1.3,0s-0.4,0.9,0,1.3l2.6,2.6
			c0.2,0.2,0.4,0.3,0.6,0.3s0.5-0.1,0.6-0.3l2.6-2.6c0.4-0.4,0.4-0.9,0-1.3s-0.9-0.4-1.3,0L12.9,11.5z M12,23C5.9,23,1,18.1,1,12
			S5.9,1,12,1s11,4.9,11,11S18.1,23,12,23z M5.4,16c1.5,2.1,4,3.3,6.6,3.3s5.1-1.3,6.6-3.3c0.3-0.4,0.2-1-0.2-1.3
			c-0.4-0.3-1-0.2-1.3,0.2c-1.2,1.6-3.1,2.6-5.2,2.6s-4-1-5.2-2.6c-0.3-0.4-0.9-0.5-1.3-0.2C5.2,15,5.1,15.6,5.4,16z"/>
	</g>
</g>
</svg>
